<svg width="200" height="200" viewBox="0 0 200 200" fill="none" xmlns="http://www.w3.org/2000/svg">
<path d="M37.3421 48.1008C50.0536 52.0679 61.5189 53.314 71.4679 53.314H71.9664C65.2472 69.7746 60.7712 86.7338 60.0234 99.9438C59.5249 109.426 61.0204 127.091 75.9439 127.091C87.6689 127.091 102.883 114.161 114.608 101.439L110.111 119.883C82.9332 136.313 57.2817 152.275 56.0355 175.714C55.2877 188.426 63.2429 197.627 76.4529 197.627C108.367 197.627 119.095 155.515 127.309 121.618C141.246 112.915 155.952 103.184 163.928 93.2141C168.663 88.4784 160.438 81.2398 155.952 86.4844C149.471 93.9617 141.246 100.691 130.549 107.182L137.508 77.9998C137.508 70.024 123.581 68.03 120.839 75.7566C116.851 85.4875 91.4075 114.66 80.6796 114.66C78.1872 114.66 76.4424 110.422 76.9409 99.6944C77.6887 85.4874 83.1825 68.03 89.9121 51.8187C106.373 48.1008 134.527 36.3864 135.763 16.426C136.261 6.21733 127.559 0.00671387 118.098 0.00671387C98.8953 0.00671387 83.4317 27.1538 75.9439 43.1262C65.4964 44.6217 53.2938 41.8799 39.8346 38.1412C36.5944 38.1412 33.6034 40.3844 33.3542 43.3753C33.1049 46.1066 34.8497 47.1038 37.0929 48.1008H37.3421ZM79.4438 184.947C72.7142 187.938 66.7219 185.196 67.2204 176.213C67.9681 160.261 85.6749 147.041 106.622 134.069C101.637 153.521 95.1567 177.719 79.4438 184.947ZM115.107 13.1857C118.596 11.1917 124.329 10.4441 124.329 16.426C123.581 28.4105 107.37 36.3863 95.9044 40.1353C100.889 29.9059 108.117 17.9317 115.356 13.1857H115.107Z" fill="#78E5E1"/>
</svg>
