<svg width="998" height="758" viewBox="0 0 998 758" fill="none" xmlns="http://www.w3.org/2000/svg">
  <path
    d="M901.07 0H77.93C66.0945 0 56.5 9.59454 56.5 21.43V599.57C56.5 611.405 66.0945 621 77.93 621H901.07C912.905 621 922.5 611.405 922.5 599.57V21.43C922.5 9.59454 912.905 0 901.07 0Z"
    fill="#FADB93" />
  <path
    d="M77.93 0H901.07C906.754 0 912.204 2.2578 916.223 6.2767C920.242 10.2956 922.5 15.7464 922.5 21.43V531H56.5V21.43C56.5 15.7464 58.7578 10.2956 62.7767 6.2767C66.7956 2.2578 72.2464 0 77.93 0Z"
    fill="#E2E2E2" />
  <path d="M887.5 33H84.5V493H887.5V33Z" fill="white" />
  <path
    d="M564.2 758H410.05C405.736 758 401.472 757.079 397.543 755.298C393.613 753.518 390.109 750.92 387.265 747.677C384.42 744.433 382.301 740.621 381.048 736.493C379.795 732.365 379.438 728.017 380 723.74L393.5 621H581.5L594.28 724C594.802 728.26 594.414 732.581 593.142 736.68C591.869 740.778 589.74 744.56 586.896 747.774C584.053 750.988 580.559 753.562 576.646 755.325C572.734 757.087 568.491 757.999 564.2 758Z"
    fill="#E2E2E2" />
  <path opacity="0.8"
    d="M489.5 599C502.755 599 513.5 588.255 513.5 575C513.5 561.745 502.755 551 489.5 551C476.245 551 465.5 561.745 465.5 575C465.5 588.255 476.245 599 489.5 599Z"
    fill="#7CE5E0" />
  <path opacity="0.8" d="M998 60.5H504V279.5H998V60.5Z" fill="#7CE5E0" />
  <path d="M0 318.5H471" stroke="#AB8FE2" strokeWidth="3.52" strokeMiterlimit="10" />
  <path d="M0 355H471" stroke="#AB8FE2" strokeWidth="3.52" strokeMiterlimit="10" />
  <path d="M0 392H471" stroke="#AB8FE2" strokeWidth="3.52" strokeMiterlimit="10" />
  <path d="M0 429H471" stroke="#AB8FE2" strokeWidth="3.52" strokeMiterlimit="10" />
  <path
    d="M18 100.5C24.0751 100.5 29 95.5751 29 89.5C29 83.4249 24.0751 78.5 18 78.5C11.9249 78.5 7 83.4249 7 89.5C7 95.5751 11.9249 100.5 18 100.5Z"
    fill="#FADB93" />
  <path
    d="M49 100.5C55.0751 100.5 60 95.5751 60 89.5C60 83.4249 55.0751 78.5 49 78.5C42.9249 78.5 38 83.4249 38 89.5C38 95.5751 42.9249 100.5 49 100.5Z"
    fill="#FADB93" />
  <path
    d="M80 100.5C86.0751 100.5 91 95.5751 91 89.5C91 83.4249 86.0751 78.5 80 78.5C73.9249 78.5 69 83.4249 69 89.5C69 95.5751 73.9249 100.5 80 100.5Z"
    fill="#FADB93" />
  <path
    d="M111 100.5C117.075 100.5 122 95.5751 122 89.5C122 83.4249 117.075 78.5 111 78.5C104.925 78.5 100 83.4249 100 89.5C100 95.5751 104.925 100.5 111 100.5Z"
    fill="#FADB93" />
  <path
    d="M142 100.5C148.075 100.5 153 95.5751 153 89.5C153 83.4249 148.075 78.5 142 78.5C135.925 78.5 131 83.4249 131 89.5C131 95.5751 135.925 100.5 142 100.5Z"
    fill="#FADB93" />
  <path
    d="M173 100.5C179.075 100.5 184 95.5751 184 89.5C184 83.4249 179.075 78.5 173 78.5C166.925 78.5 162 83.4249 162 89.5C162 95.5751 166.925 100.5 173 100.5Z"
    fill="#FADB93" />
  <path
    d="M18 164.5C24.0751 164.5 29 159.575 29 153.5C29 147.425 24.0751 142.5 18 142.5C11.9249 142.5 7 147.425 7 153.5C7 159.575 11.9249 164.5 18 164.5Z"
    fill="#FADB93" />
  <path
    d="M49 164.5C55.0751 164.5 60 159.575 60 153.5C60 147.425 55.0751 142.5 49 142.5C42.9249 142.5 38 147.425 38 153.5C38 159.575 42.9249 164.5 49 164.5Z"
    fill="#FADB93" />
  <path
    d="M80 164.5C86.0751 164.5 91 159.575 91 153.5C91 147.425 86.0751 142.5 80 142.5C73.9249 142.5 69 147.425 69 153.5C69 159.575 73.9249 164.5 80 164.5Z"
    fill="#FADB93" />
  <path
    d="M111 164.5C117.075 164.5 122 159.575 122 153.5C122 147.425 117.075 142.5 111 142.5C104.925 142.5 100 147.425 100 153.5C100 159.575 104.925 164.5 111 164.5Z"
    fill="#FADB93" />
  <path
    d="M142 164.5C148.075 164.5 153 159.575 153 153.5C153 147.425 148.075 142.5 142 142.5C135.925 142.5 131 147.425 131 153.5C131 159.575 135.925 164.5 142 164.5Z"
    fill="#FADB93" />
  <path
    d="M173 164.5C179.075 164.5 184 159.575 184 153.5C184 147.425 179.075 142.5 173 142.5C166.925 142.5 162 147.425 162 153.5C162 159.575 166.925 164.5 173 164.5Z"
    fill="#FADB93" />
  <path
    d="M34 132.5C40.0751 132.5 45 127.575 45 121.5C45 115.425 40.0751 110.5 34 110.5C27.9249 110.5 23 115.425 23 121.5C23 127.575 27.9249 132.5 34 132.5Z"
    fill="#FADB93" />
  <path
    d="M65 132.5C71.0751 132.5 76 127.575 76 121.5C76 115.425 71.0751 110.5 65 110.5C58.9249 110.5 54 115.425 54 121.5C54 127.575 58.9249 132.5 65 132.5Z"
    fill="#FADB93" />
  <path
    d="M96 132.5C102.075 132.5 107 127.575 107 121.5C107 115.425 102.075 110.5 96 110.5C89.9249 110.5 85 115.425 85 121.5C85 127.575 89.9249 132.5 96 132.5Z"
    fill="#FADB93" />
  <path
    d="M127 132.5C133.075 132.5 138 127.575 138 121.5C138 115.425 133.075 110.5 127 110.5C120.925 110.5 116 115.425 116 121.5C116 127.575 120.925 132.5 127 132.5Z"
    fill="#FADB93" />
  <path
    d="M158 132.5C164.075 132.5 169 127.575 169 121.5C169 115.425 164.075 110.5 158 110.5C151.925 110.5 147 115.425 147 121.5C147 127.575 151.925 132.5 158 132.5Z"
    fill="#FADB93" />
  <path
    d="M189 132.5C195.075 132.5 200 127.575 200 121.5C200 115.425 195.075 110.5 189 110.5C182.925 110.5 178 115.425 178 121.5C178 127.575 182.925 132.5 189 132.5Z"
    fill="#FADB93" />
  <path
    d="M34 196.5C40.0751 196.5 45 191.575 45 185.5C45 179.425 40.0751 174.5 34 174.5C27.9249 174.5 23 179.425 23 185.5C23 191.575 27.9249 196.5 34 196.5Z"
    fill="#FADB93" />
  <path
    d="M65 196.5C71.0751 196.5 76 191.575 76 185.5C76 179.425 71.0751 174.5 65 174.5C58.9249 174.5 54 179.425 54 185.5C54 191.575 58.9249 196.5 65 196.5Z"
    fill="#FADB93" />
  <path
    d="M96 196.5C102.075 196.5 107 191.575 107 185.5C107 179.425 102.075 174.5 96 174.5C89.9249 174.5 85 179.425 85 185.5C85 191.575 89.9249 196.5 96 196.5Z"
    fill="#FADB93" />
  <path
    d="M127 196.5C133.075 196.5 138 191.575 138 185.5C138 179.425 133.075 174.5 127 174.5C120.925 174.5 116 179.425 116 185.5C116 191.575 120.925 196.5 127 196.5Z"
    fill="#FADB93" />
  <path
    d="M158 196.5C164.075 196.5 169 191.575 169 185.5C169 179.425 164.075 174.5 158 174.5C151.925 174.5 147 179.425 147 185.5C147 191.575 151.925 196.5 158 196.5Z"
    fill="#FADB93" />
  <path
    d="M189 196.5C195.075 196.5 200 191.575 200 185.5C200 179.425 195.075 174.5 189 174.5C182.925 174.5 178 179.425 178 185.5C178 191.575 182.925 196.5 189 196.5Z"
    fill="#FADB93" />
</svg>