<svg width="428" height="318" viewBox="0 0 428 318" fill="none" xmlns="http://www.w3.org/2000/svg">
  <path
    d="M102.09 60H51.91C28.2115 60 9 79.2115 9 102.91V192.59C9 216.289 28.2115 235.5 51.91 235.5H102.09C125.789 235.5 145 216.289 145 192.59V102.91C145 79.2115 125.789 60 102.09 60Z"
    stroke="#AB8DE5" strokeWidth="18" strokeMiterlimit="10" />
  <path
    d="M72.5 19V252.46C72.5606 269.68 79.4283 286.178 91.605 298.355C103.782 310.532 120.28 317.399 137.5 317.46H330.46C347.68 317.399 364.178 310.532 376.355 298.355C388.532 286.178 395.399 269.68 395.46 252.46V19H72.5Z"
    fill="#FCD995" />
  <path
    d="M418.5 0H49.5C44.2533 0 40 4.25329 40 9.5C40 14.7467 44.2533 19 49.5 19H418.5C423.747 19 428 14.7467 428 9.5C428 4.25329 423.747 0 418.5 0Z"
    fill="#1F171E" />
  <path
    d="M234 222.75C264.1 222.75 288.5 198.35 288.5 168.25C288.5 138.15 264.1 113.75 234 113.75C203.9 113.75 179.5 138.15 179.5 168.25C179.5 198.35 203.9 222.75 234 222.75Z"
    fill="white" />
</svg>