<svg width="277" height="224" viewBox="0 0 277 224" fill="none" xmlns="http://www.w3.org/2000/svg">
  <path d="M56.4211 31.202C107.369 17.3593 126.158 216.91 100.421 222.727C74.6843 228.543 27.1843 39.15 56.4211 31.202Z"
    fill="#50B89D" />
  <path d="M68.1053 64.5459C72.2632 76.6259 95.5 161.302 100.487 222.727" stroke="#FBDC8E" strokeWidth="2"
    strokeMiterlimit="10" stroke-linecap="round" />
  <path
    d="M250.79 0.582275C262.526 0.582275 275.461 19.5176 276.303 26.097C278.684 44.651 271.29 57.072 271.711 64.546C272.658 81.219 278.842 96.127 274.263 105.22C247.25 159.039 155.171 147.13 144.198 165.644C141.382 170.908 133.29 187.514 133.29 187.514C129.013 183.238 118.184 153.933 118.184 142.498C118.184 131.064 134.053 99.614 165.184 77.179C181.645 65.323 211.882 0.582275 250.79 0.582275Z"
    fill="#73E5E2" />
  <path
    d="M4.60528 113.799C-22.3947 139.524 77.9869 232.53 92.579 219.779C107.171 207.028 30.9869 88.6661 4.60528 113.799Z"
    fill="#73E5E2" />
  <path d="M15.9738 126.682C27.2896 136.485 79.1316 192.988 92.579 219.779" stroke="#FBDC8E" strokeWidth="2"
    strokeMiterlimit="10" stroke-linecap="round" />
  <path d="M123.855 216.582C127.289 204.739 160.803 103.417 244.605 56.585" stroke="#FBDC8E" strokeWidth="2"
    strokeMiterlimit="10" stroke-linecap="round" />
  <path d="M215.671 76.2439C216.329 71.3099 219.697 61.0589 215.671 45.9009" stroke="#FBDC8E" strokeWidth="2"
    strokeMiterlimit="10" stroke-linecap="round" />
  <path d="M195.329 94.9689C196.04 86.9689 195.329 75.5999 192.474 69.1389" stroke="#FBDC8E" strokeWidth="2"
    strokeMiterlimit="10" stroke-linecap="round" />
  <path d="M176.552 116.602C190.516 114.667 204.72 115.403 218.408 118.773" stroke="#FBDC8E" strokeWidth="2"
    strokeMiterlimit="10" stroke-linecap="round" />
</svg>