<svg width="509" height="501" viewBox="0 0 509 501" fill="none" xmlns="http://www.w3.org/2000/svg">
<g clip-path="url(#clip0_40_26)">
<path d="M467.549 249.151L309.317 115.444" stroke="#D8D8D8" stroke-width="4" stroke-linecap="round" stroke-linejoin="round"/>
<path d="M258.675 168.427C264.466 169.012 280.387 174.554 283.76 171.911C293.117 164.576 308.037 124.613 306.227 118.261C305.689 116.554 299.675 115.827 298.739 116.561C297.803 117.294 288.942 140.379 277.964 147.486C271.983 151.362 259.571 143.149 248.479 141.424" fill="#1F161E"/>
<path d="M93.7156 318.07C92.4048 317.836 84.9275 315.948 83.4515 316.812C80.7649 318.332 78.6679 334.527 79.2652 335.433C79.8625 336.339 81.3508 337.087 81.9331 336.507C82.5154 335.927 85.0531 329.815 85.8325 329.069C86.6119 328.323 90.0033 327.76 91.6255 328.55" fill="#1F161E"/>
<path d="M274.686 184.857C279.712 185.242 355.117 219.127 360.913 226.522C366.709 233.918 385.878 308.399 384.776 311.178C383.673 313.957 376.931 317.71 374.095 317.241C371.258 316.772 333.83 250.047 333.83 250.047L252.669 239.123L274.686 184.857Z" fill="#1F161E"/>
<path d="M221.385 190.896C219.625 195.395 193.304 259.015 189.77 281.157C181.301 284.822 92.8322 315.102 92.3424 316.376C91.8526 317.649 89.1376 328.281 90.111 329.523C91.0843 330.765 207.141 331.943 226.38 316.864C233.405 311.357 269.958 219.039 274.665 184.873C268.35 172.76 226.25 178.433 221.385 190.896Z" fill="#FADB93"/>
<path d="M221.301 128.409C212.235 131.47 220.059 189.074 221.448 190.847C222.837 192.619 271.639 187.628 274.756 184.802C277.873 181.976 264.036 113.981 221.301 128.409Z" fill="#AB8FE2"/>
<path d="M237.217 131.341C238.352 133.278 227.766 139.65 226.554 137.57L218.995 124.618L229.658 118.389L237.217 131.341Z" fill="#F8CDBA"/>
<path d="M223.512 132.352C222.837 131.203 223.16 125.69 225.58 125.167C222.553 125.749 219.553 123.46 218.995 124.618L223.512 132.352Z" fill="black"/>
<path d="M233.422 121.882C226.449 127.347 216.369 126.13 210.909 119.164C205.449 112.197 206.675 102.119 213.648 96.6536C220.621 91.1883 230.7 92.4053 236.161 99.3719C241.621 106.339 240.395 116.417 233.422 121.882Z" fill="#F8CDBA"/>
<path d="M238.962 103.833C237.681 104.574 236.331 104.636 235.946 103.97C235.561 103.305 236.288 102.165 237.569 101.424C238.85 100.683 240.2 100.621 240.585 101.287C240.969 101.952 240.243 103.092 238.962 103.833Z" fill="#FA9E9F"/>
<path d="M224.79 112.632C223.512 113.378 222.162 113.444 221.775 112.78C221.387 112.116 222.109 110.973 223.387 110.227C224.665 109.481 226.015 109.415 226.403 110.079C226.79 110.742 226.068 111.885 224.79 112.632Z" fill="#FA9E9F"/>
<path d="M231.529 103.746C232.319 104.107 236.052 105.404 234.312 107.815" stroke="#1F161E" stroke-width="0.69" stroke-miterlimit="10" stroke-linecap="round"/>
<path d="M231.428 113.556C230.717 113.944 229.158 113.724 228.132 113.278" stroke="#1F161E" stroke-width="0.69" stroke-miterlimit="10" stroke-linecap="round"/>
<path d="M214.598 90.0329C210.789 93.0181 198.023 100.009 193.743 100.226C193.249 101.851 192.867 109.679 194.558 118.044L204.123 118.03L195.326 121.318C196.364 125.504 198.165 129.463 200.637 132.998C206.41 135.617 213.011 132.428 214.039 131.622C220.704 126.398 213.702 114.914 215.529 110.774C218.636 103.725 229.677 102.762 236.845 94.8831C235.049 89.8461 223.724 82.8796 214.598 90.0329Z" fill="#1F161E"/>
<path d="M217.646 117.634C216.111 118.837 213.893 118.569 212.691 117.035C211.489 115.502 211.759 113.283 213.294 112.08C214.829 110.877 217.047 111.145 218.249 112.678C219.451 114.212 219.181 116.43 217.646 117.634Z" fill="#F8CDBA"/>
<path d="M374.475 316.402C375.038 317.582 378.04 324.691 379.605 325.379C382.43 326.61 396.667 318.583 397.018 317.564C397.37 316.545 397.108 314.903 396.279 314.765C395.449 314.627 389.046 316.267 387.992 316.102C386.938 315.936 384.438 313.537 384.103 311.773" fill="#1F161E"/>
<path d="M464.195 273.911L334.376 375.661" stroke="#D8D8D8" stroke-width="4" stroke-linecap="round" stroke-linejoin="round"/>
<path d="M309.316 113.429L295.121 114.778" stroke="#969696" stroke-width="4" stroke-miterlimit="10" stroke-linecap="round"/>
<path d="M306.958 116.662C304.019 118.966 300.574 119.477 299.263 117.805C297.953 116.133 299.273 112.91 302.211 110.606C305.15 108.303 308.595 107.791 309.906 109.464C311.217 111.136 309.897 114.359 306.958 116.662Z" fill="#F8CDBA"/>
<path d="M313.779 116.835C310.84 119.139 307.395 119.651 306.084 117.978C304.773 116.306 306.093 113.083 309.032 110.78C311.971 108.476 315.416 107.965 316.727 109.637C318.037 111.309 316.717 114.532 313.779 116.835Z" fill="#F8CDBA"/>
<path d="M324.515 111.979L313.803 112.998" stroke="#969696" stroke-width="4" stroke-miterlimit="10" stroke-linecap="round"/>
<path d="M255.792 172.027C261.578 172.605 285.827 174.807 289.186 172.174C298.543 164.84 313.456 124.882 311.653 118.524C311.115 116.817 305.101 116.091 304.165 116.824C303.229 117.558 291.242 144.32 280.247 151.406C274.267 155.283 248.116 144.153 237.018 142.422" fill="#AB8FE2"/>
<path d="M491.16 277.262C482.833 283.788 470.798 282.335 464.277 274.016C457.757 265.697 459.221 253.662 467.548 247.136C475.875 240.61 487.911 242.063 494.431 250.382C500.951 258.701 499.487 270.736 491.16 277.262Z" stroke="#969696" stroke-width="4" stroke-miterlimit="10"/>
<path d="M331.187 402.646C322.861 409.172 310.825 407.719 304.304 399.4C297.784 391.081 299.248 379.046 307.575 372.52C315.902 365.993 327.938 367.447 334.458 375.766C340.978 384.085 339.514 396.119 331.187 402.646Z" stroke="#969696" stroke-width="4" stroke-miterlimit="10"/>
<path d="M265.728 150.07C260.608 148.744 254.457 146.808 249.261 145.227" stroke="#1F161E" stroke-linecap="round" stroke-linejoin="round"/>
<path d="M255.792 172.027C258.688 172.313 266.19 173.011 273.4 173.306" stroke="#1F161E" stroke-linecap="round" stroke-linejoin="round"/>
<path d="M262.822 173.071C264.437 173.191 274.718 176.283 274.947 179.494C274.147 174.748 273.841 173.322 273.841 173.322" fill="#1F161E"/>
</g>
<defs>
<clipPath id="clip0_40_26">
<rect width="381" height="337" fill="white" transform="matrix(-0.787057 0.61688 0.61688 0.787057 300.844 0.514404)"/>
</clipPath>
</defs>
</svg>
