<svg width="44" height="56" viewBox="0 0 44 56" fill="none" xmlns="http://www.w3.org/2000/svg">
<path d="M35.37 50H41.37C42 49.997 42.604 49.746 43.05 49.3C43.496 48.854 43.747 48.25 43.75 47.62V10.74C43.751 10.427 43.689 10.118 43.569 9.82901C43.449 9.54101 43.273 9.279 43.05 9.06L35.47 1.48001C35.25 1.25801 34.988 1.08201 34.7 0.962006C34.412 0.842006 34.102 0.779999 33.79 0.779999H11.4C10.77 0.781999 10.166 1.03401 9.71997 1.48001C9.27397 1.92601 9.02302 2.529 9.02002 3.16V6.72" fill="#FBDC8E"/>
<path d="M25.29 6.72H3.28999C2.93699 6.72 2.58803 6.78999 2.26203 6.92499C1.93603 7.05999 1.64 7.259 1.391 7.509C1.142 7.759 0.944985 8.05499 0.810985 8.38199C0.676985 8.70799 0.608996 9.057 0.609996 9.41V53.21C0.609996 53.922 0.891993 54.605 1.39399 55.109C1.89699 55.613 2.57799 55.898 3.28999 55.9H32.68C33.392 55.898 34.073 55.613 34.576 55.109C35.078 54.605 35.36 53.922 35.36 53.21V16.81C35.361 16.458 35.293 16.109 35.159 15.783C35.025 15.457 34.829 15.16 34.58 14.91L27.18 7.51001C26.679 7.00701 26 6.723 25.29 6.72Z" fill="#D8D8D8"/>
<path d="M35.37 15.76H27.9C27.502 15.76 27.121 15.602 26.839 15.321C26.558 15.04 26.4 14.658 26.4 14.26V6.72" fill="#969696"/>
<path d="M43.78 9.82999H36.31C35.91 9.82699 35.528 9.66701 35.245 9.38501C34.963 9.10201 34.803 8.71901 34.8 8.32001V0.779999" fill="#64CCC4"/>
<path d="M12.56 11.24H5.47998C4.96098 11.24 4.53998 11.661 4.53998 12.18C4.53998 12.699 4.96098 13.12 5.47998 13.12H12.56C13.079 13.12 13.5 12.699 13.5 12.18C13.5 11.661 13.079 11.24 12.56 11.24Z" fill="#969696"/>
<path d="M12.56 15.76H5.47998C4.96098 15.76 4.53998 16.181 4.53998 16.7C4.53998 17.219 4.96098 17.64 5.47998 17.64H12.56C13.079 17.64 13.5 17.219 13.5 16.7C13.5 16.181 13.079 15.76 12.56 15.76Z" fill="#969696"/>
<path d="M30.92 23.49H5.07001C4.55101 23.49 4.13 23.911 4.13 24.43C4.13 24.949 4.55101 25.37 5.07001 25.37H30.92C31.439 25.37 31.86 24.949 31.86 24.43C31.86 23.911 31.439 23.49 30.92 23.49Z" fill="#969696"/>
<path d="M30.92 27.93H5.07001C4.55101 27.93 4.13 28.351 4.13 28.87C4.13 29.389 4.55101 29.81 5.07001 29.81H30.92C31.439 29.81 31.86 29.389 31.86 28.87C31.86 28.351 31.439 27.93 30.92 27.93Z" fill="#969696"/>
<path d="M30.92 32.37H5.07001C4.55101 32.37 4.13 32.791 4.13 33.31C4.13 33.829 4.55101 34.25 5.07001 34.25H30.92C31.439 34.25 31.86 33.829 31.86 33.31C31.86 32.791 31.439 32.37 30.92 32.37Z" fill="#969696"/>
</svg>
