<svg width="58" height="40" viewBox="0 0 58 40" fill="none" xmlns="http://www.w3.org/2000/svg">
<path d="M54.64 0.649994H3.08002C1.40702 0.649994 0.0499878 2.00599 0.0499878 3.67999V20.52C0.0499878 22.193 1.40702 23.55 3.08002 23.55H54.64C56.313 23.55 57.67 22.193 57.67 20.52V3.67999C57.67 2.00599 56.313 0.649994 54.64 0.649994Z" fill="#78E5E1"/>
<path d="M28.85 39.25L35.79 18.23H21.91L28.85 39.25Z" fill="#78E5E1"/>
<path d="M15.1 6.75L9.28003 16.82H20.91L15.1 6.75Z" fill="white"/>
<path d="M42.61 16.82L48.43 6.75H36.79L42.61 16.82Z" fill="white"/>
<path d="M28.85 16.16C31.263 16.16 33.22 14.203 33.22 11.79C33.22 9.37599 31.263 7.41998 28.85 7.41998C26.436 7.41998 24.48 9.37599 24.48 11.79C24.48 14.203 26.436 16.16 28.85 16.16Z" fill="white"/>
</svg>
