<svg width="78" height="204" viewBox="0 0 78 204" fill="none" xmlns="http://www.w3.org/2000/svg">
  <path
    d="M45.12 138.96C45.12 135.464 42.286 132.63 38.79 132.63C35.294 132.63 32.46 135.464 32.46 138.96V160.81C32.46 164.306 35.294 167.14 38.79 167.14C42.286 167.14 45.12 164.306 45.12 160.81V138.96Z"
    fill="black" />
  <path
    d="M38.79 203.87C45.804 203.87 51.49 198.184 51.49 191.17C51.49 184.156 45.804 178.47 38.79 178.47C31.776 178.47 26.09 184.156 26.09 191.17C26.09 198.184 31.776 203.87 38.79 203.87Z"
    fill="#FBDC8E" />
  <path
    d="M38.79 152.88C33.761 152.879 28.781 153.868 24.134 155.792C19.487 157.715 15.265 160.536 11.708 164.091C8.15199 167.647 5.33001 171.868 3.40601 176.515C1.48101 181.161 0.490005 186.141 0.490005 191.17H77.09C77.09 186.141 76.099 181.161 74.174 176.515C72.249 171.868 69.428 167.647 65.872 164.091C62.315 160.536 58.093 157.715 53.446 155.792C48.799 153.868 43.819 152.879 38.79 152.88Z"
    fill="#AB8DE5" />
  <path d="M38.79 139.92V1" stroke="black" strokeWidth="2" stroke-linecap="round" stroke-linejoin="round" />
</svg>