<svg width="621" height="442" viewBox="0 0 621 442" fill="none" xmlns="http://www.w3.org/2000/svg">
<path d="M545.458 437.747C546.177 440.481 548.977 442.116 551.712 441.397C554.446 440.678 556.081 437.878 555.362 435.143L504.163 240.401C503.444 237.666 500.644 236.032 497.909 236.751C495.175 237.47 493.541 240.27 494.259 243.004L545.458 437.747Z" fill="#969696"/>
<path d="M493.751 243.013C494.47 240.278 492.836 237.478 490.101 236.759C487.366 236.04 484.566 237.674 483.847 240.409L432.649 435.152C431.93 437.886 433.564 440.686 436.299 441.405C439.033 442.124 441.833 440.49 442.552 437.755L493.751 243.013Z" fill="#969696"/>
<path d="M423.102 243.011C423.821 240.277 422.187 237.477 419.453 236.758C416.718 236.039 413.918 237.673 413.199 240.408L362 435.15C361.281 437.885 362.915 440.685 365.65 441.404C368.385 442.123 371.185 440.488 371.904 437.754L423.102 243.011Z" fill="#D8D8D8"/>
<path d="M473.919 434.152C474.626 436.895 477.423 438.546 480.166 437.839C482.909 437.132 484.559 434.335 483.852 431.592L433.512 236.273C432.805 233.53 430.009 231.88 427.266 232.587C424.523 233.294 422.873 236.09 423.579 238.833L473.919 434.152Z" fill="#D8D8D8"/>
<path d="M134.681 243.016C135.4 240.282 133.766 237.482 131.031 236.763C128.297 236.044 125.497 237.678 124.778 240.413L73.579 435.155C72.86 437.89 74.494 440.69 77.229 441.408C79.964 442.127 82.764 440.493 83.483 437.759L134.681 243.016Z" fill="#969696"/>
<path d="M185.519 437.759C186.238 440.494 189.038 442.128 191.773 441.409C194.507 440.69 196.141 437.89 195.422 435.156L144.224 240.413C143.505 237.679 140.705 236.045 137.97 236.764C135.235 237.483 133.601 240.282 134.32 243.017L185.519 437.759Z" fill="#969696"/>
<path d="M525.27 227.14H30.1C27.598 227.14 25.57 229.168 25.57 231.67V237.76C25.57 240.262 27.598 242.29 30.1 242.29H525.27C527.772 242.29 529.8 240.262 529.8 237.76V231.67C529.8 229.168 527.772 227.14 525.27 227.14Z" fill="#D8D8D8"/>
<path d="M61.507 243.019C62.226 240.284 60.591 237.485 57.857 236.766C55.122 236.047 52.322 237.681 51.603 240.416L0.404002 435.158C-0.314998 437.893 1.32 440.692 4.054 441.411C6.789 442.13 9.589 440.496 10.308 437.762L61.507 243.019Z" fill="#D8D8D8"/>
<path d="M112.344 437.759C113.063 440.494 115.862 442.128 118.597 441.409C121.332 440.69 122.966 437.89 122.247 435.156L71.048 240.413C70.329 237.679 67.53 236.045 64.795 236.764C62.06 237.483 60.426 240.282 61.145 243.017L112.344 437.759Z" fill="#D8D8D8"/>
<path d="M396.28 227.14H303.77L320.53 169.5C320.949 168.109 321.806 166.891 322.974 166.028C324.142 165.165 325.558 164.702 327.01 164.71H405.51C406.541 164.693 407.562 164.918 408.491 165.365C409.42 165.813 410.231 166.472 410.861 167.288C411.49 168.105 411.92 169.058 412.116 170.07C412.312 171.083 412.269 172.127 411.99 173.12L396.28 227.14Z" fill="black"/>
<path d="M361.38 201.58C364.506 201.58 367.04 199.046 367.04 195.92C367.04 192.794 364.506 190.26 361.38 190.26C358.254 190.26 355.72 192.794 355.72 195.92C355.72 199.046 358.254 201.58 361.38 201.58Z" fill="white"/>
<path d="M314.76 223.09H249.85V227.14H314.76V223.09Z" fill="black"/>
<path d="M541.89 23.27C541.89 22.867 541.563 22.54 541.16 22.54C540.757 22.54 540.43 22.867 540.43 23.27V57.43C540.43 57.833 540.757 58.16 541.16 58.16C541.563 58.16 541.89 57.833 541.89 57.43V23.27Z" fill="#969696"/>
<path d="M511.18 66.44H504.92C503.545 66.44 502.43 67.555 502.43 68.93C502.43 70.305 503.545 71.42 504.92 71.42H511.18C512.555 71.42 513.67 70.305 513.67 68.93C513.67 67.555 512.555 66.44 511.18 66.44Z" fill="#D8D8D8"/>
<path d="M587.94 66.44H581.68C580.305 66.44 579.19 67.555 579.19 68.93C579.19 70.305 580.305 71.42 581.68 71.42H587.94C589.315 71.42 590.43 70.305 590.43 68.93C590.43 67.555 589.315 66.44 587.94 66.44Z" fill="#D8D8D8"/>
<path d="M619.43 64.83H473.43C472.751 64.83 472.2 65.381 472.2 66.06V66.82C472.2 67.499 472.751 68.05 473.43 68.05H619.43C620.109 68.05 620.66 67.499 620.66 66.82V66.06C620.66 65.381 620.109 64.83 619.43 64.83Z" fill="#D8D8D8"/>
<path d="M535.1 0.889999H526.23C524.816 0.889999 523.67 2.036 523.67 3.45V62.27C523.67 63.684 524.816 64.83 526.23 64.83H535.1C536.514 64.83 537.66 63.684 537.66 62.27V3.45C537.66 2.036 536.514 0.889999 535.1 0.889999Z" fill="#969696"/>
<path d="M542.53 15.88H539.79C538.614 15.88 537.66 16.834 537.66 18.01V62.7C537.66 63.876 538.614 64.83 539.79 64.83H542.53C543.706 64.83 544.66 63.876 544.66 62.7V18.01C544.66 16.834 543.706 15.88 542.53 15.88Z" fill="#D8D8D8"/>
<path d="M549.6 15.88H546.72C545.582 15.88 544.66 16.802 544.66 17.94V62.77C544.66 63.908 545.582 64.83 546.72 64.83H549.6C550.738 64.83 551.66 63.908 551.66 62.77V17.94C551.66 16.802 550.738 15.88 549.6 15.88Z" fill="#969696"/>
<path d="M554.676 19.384L552.313 20.468C551.209 20.975 550.725 22.281 551.232 23.386L569.819 63.873C570.326 64.977 571.632 65.461 572.737 64.954L575.099 63.869C576.204 63.362 576.688 62.056 576.181 60.952L557.593 20.465C557.086 19.361 555.78 18.877 554.676 19.384Z" fill="#D8D8D8"/>
<path d="M530.66 48.65C532.819 48.65 534.57 46.9 534.57 44.74C534.57 42.581 532.819 40.83 530.66 40.83C528.501 40.83 526.75 42.581 526.75 44.74C526.75 46.9 528.501 48.65 530.66 48.65Z" fill="#D8D8D8"/>
<path d="M534.2 50.99H527.12C526.601 50.99 526.18 51.411 526.18 51.93C526.18 52.449 526.601 52.87 527.12 52.87H534.2C534.719 52.87 535.14 52.449 535.14 51.93C535.14 51.411 534.719 50.99 534.2 50.99Z" fill="#D8D8D8"/>
<path d="M534.2 55.8H527.12C526.601 55.8 526.18 56.221 526.18 56.74C526.18 57.259 526.601 57.68 527.12 57.68H534.2C534.719 57.68 535.14 57.259 535.14 56.74C535.14 56.221 534.719 55.8 534.2 55.8Z" fill="#D8D8D8"/>
<path d="M208.04 339.91C242.895 339.91 271.15 333.664 271.15 325.96C271.15 318.255 242.895 312.01 208.04 312.01C173.185 312.01 144.93 318.255 144.93 325.96C144.93 333.664 173.185 339.91 208.04 339.91Z" fill="black"/>
<path d="M208.04 325.96L172.59 436.91" stroke="black" stroke-width="4" stroke-miterlimit="10" stroke-linecap="round"/>
<path d="M208.04 325.96L243.49 436.91" stroke="black" stroke-width="4" stroke-miterlimit="10" stroke-linecap="round"/>
<path d="M184.23 400.48L223.75 375.14" stroke="black" stroke-width="2" stroke-miterlimit="10" stroke-linecap="round"/>
<path d="M192.17 375.14L231.7 400.48" stroke="black" stroke-width="2" stroke-miterlimit="10" stroke-linecap="round"/>
<path d="M270.15 205.86C269.99 210.78 270.06 228.01 269.25 235.38" stroke="#1F161E" stroke-miterlimit="10" stroke-linecap="round"/>
</svg>
