<svg width="455" height="606" viewBox="0 0 455 606" fill="none" xmlns="http://www.w3.org/2000/svg">
<path d="M158.869 189.327L58.4869 603.957H259.25L158.869 189.327Z" fill="#B37361"/>
<path d="M302.842 0L151.513 603.957H454.171L302.842 0Z" fill="#99574A"/>
<path d="M158.868 320.506V603.957" stroke="#FBDC8E" stroke-width="3" stroke-miterlimit="10" stroke-linecap="round"/>
<path d="M302.842 172.655V603.957" stroke="#FBDC8E" stroke-width="3" stroke-miterlimit="10" stroke-linecap="round"/>
<path d="M158.868 426.406L185.5 399.773" stroke="#FBDC8E" stroke-width="3" stroke-miterlimit="10" stroke-linecap="round"/>
<path d="M158.869 541.426L117.447 500.002" stroke="#FBDC8E" stroke-width="3" stroke-miterlimit="10" stroke-linecap="round"/>
<path d="M302.842 295.86L272.553 265.569" stroke="#FBDC8E" stroke-width="3" stroke-miterlimit="10" stroke-linecap="round"/>
<path d="M302.842 470.224L363.184 409.865" stroke="#FBDC8E" stroke-width="3" stroke-miterlimit="10" stroke-linecap="round"/>
<path d="M103.211 603.956C103.965 599.495 104.344 594.98 104.342 590.456C104.342 554.546 80.9869 525.438 52.1709 525.438C23.3553 525.438 3.33287e-06 554.546 3.33287e-06 590.456C-0.00129667 594.98 0.37771 599.495 1.13171 603.956H103.211Z" fill="#99574A"/>
</svg>
