<svg width="526" height="606" viewBox="0 0 526 606" fill="none" xmlns="http://www.w3.org/2000/svg">
<path d="M230.553 189.641L130.171 604.271H330.934L230.553 189.641Z" fill="#B37361"/>
<path d="M374.526 0.314453L223.197 604.271H525.855L374.526 0.314453Z" fill="#99574A"/>
<path d="M230.552 320.82V604.271" stroke="#FBDC8E" stroke-width="3" stroke-miterlimit="10" stroke-linecap="round"/>
<path d="M374.526 172.969V604.271" stroke="#FBDC8E" stroke-width="3" stroke-miterlimit="10" stroke-linecap="round"/>
<path d="M230.552 426.721L257.184 400.088" stroke="#FBDC8E" stroke-width="3" stroke-miterlimit="10" stroke-linecap="round"/>
<path d="M230.553 541.741L189.131 500.317" stroke="#FBDC8E" stroke-width="3" stroke-miterlimit="10" stroke-linecap="round"/>
<path d="M374.526 296.174L344.237 265.883" stroke="#FBDC8E" stroke-width="3" stroke-miterlimit="10" stroke-linecap="round"/>
<path d="M374.526 470.539L434.868 410.18" stroke="#FBDC8E" stroke-width="3" stroke-miterlimit="10" stroke-linecap="round"/>
<path d="M56.4211 109.202C107.369 95.3593 126.158 294.91 100.421 300.727C74.6843 306.543 27.1843 117.15 56.4211 109.202Z" fill="#50B89D"/>
<path d="M68.1053 142.546C72.2632 154.626 95.5 239.302 100.487 300.727" stroke="#FBDC8E" stroke-width="2" stroke-miterlimit="10" stroke-linecap="round"/>
<path d="M250.79 78.5823C262.526 78.5823 275.461 97.5176 276.303 104.097C278.684 122.651 271.29 135.072 271.711 142.546C272.658 159.219 278.842 174.127 274.263 183.22C247.25 237.039 155.171 225.13 144.198 243.644C141.382 248.908 133.29 265.514 133.29 265.514C129.013 261.238 118.184 231.933 118.184 220.498C118.184 209.064 134.053 177.614 165.184 155.179C181.645 143.323 211.882 78.5823 250.79 78.5823Z" fill="#73E5E2"/>
<path d="M123.855 294.582C127.289 282.739 160.803 181.417 244.605 134.585" stroke="#FBDC8E" stroke-width="2" stroke-miterlimit="10" stroke-linecap="round"/>
<path d="M215.671 154.244C216.329 149.31 219.697 139.059 215.671 123.901" stroke="#FBDC8E" stroke-width="2" stroke-miterlimit="10" stroke-linecap="round"/>
<path d="M195.329 172.969C196.04 164.969 195.329 153.6 192.474 147.139" stroke="#FBDC8E" stroke-width="2" stroke-miterlimit="10" stroke-linecap="round"/>
<path d="M176.552 194.602C190.516 192.667 204.72 193.403 218.408 196.773" stroke="#FBDC8E" stroke-width="2" stroke-miterlimit="10" stroke-linecap="round"/>
<path d="M174.895 604.271C175.649 599.81 176.028 595.294 176.026 590.77C176.026 554.86 152.671 525.753 123.855 525.753C95.0394 525.753 71.6841 554.86 71.6841 590.77C71.6828 595.294 72.0618 599.81 72.8158 604.271H174.895Z" fill="#99574A"/>
<path d="M4.60533 191.799C-22.3947 217.524 77.9869 310.53 92.579 297.779C107.171 285.028 30.9869 166.666 4.60533 191.799Z" fill="#73E5E2"/>
<path d="M15.9737 204.682C27.2895 214.485 79.1315 270.988 92.5789 297.779" stroke="#FBDC8E" stroke-width="2" stroke-miterlimit="10" stroke-linecap="round"/>
</svg>
