<svg width="382" height="338" viewBox="0 0 382 338" fill="none" xmlns="http://www.w3.org/2000/svg">
  <g clip-path="url(#clip0_40_26)">
    <path d="M359.181 298.677L317.125 95.832" stroke="#D8D8D8" strokeWidth="4" stroke-linecap="round"
      stroke-linejoin="round" />
    <path
      d="M244.582 106.292C248.779 110.325 257.891 124.509 262.177 124.509C274.066 124.509 310.462 102.259 312.955 96.1423C313.585 94.4669 309.299 90.1854 308.111 90.1854C306.922 90.1854 285.707 102.888 272.682 101.709C265.584 101.071 260.881 86.9499 253.216 78.7502"
      fill="#1F161E" />
    <path
      d="M22.4382 122.31C21.551 121.317 16.8307 115.219 15.136 114.988C12.0839 114.527 0.442946 125.98 0.35422 127.062C0.265493 128.143 0.9753 129.65 1.79158 129.552C2.60787 129.455 8.37509 126.211 9.44868 126.104C10.5223 125.998 13.539 127.647 14.3286 129.269"
      fill="#1F161E" />
    <path
      d="M247.049 129.1C250.767 132.504 289.212 205.689 289.212 215.086C289.212 224.482 258.353 294.928 255.771 296.435C253.189 297.942 245.567 296.736 243.624 294.617C241.681 292.499 253.384 216.894 253.384 216.894L196.244 158.229L247.049 129.1Z"
      fill="#1F161E" />
    <path
      d="M201.373 100.974C197.211 103.429 137.25 137.265 120.809 152.511C111.883 150.171 23.5739 119.429 22.4027 120.13C21.2315 120.83 12.5363 127.523 12.5363 129.1C12.5363 130.678 103.153 203.198 127.597 203.198C136.523 203.198 222.241 153.088 247.022 129.1C249.525 115.671 212.889 94.1656 201.373 100.974Z"
      fill="#FADB93" />
    <path
      d="M239.853 51.7402C230.83 48.5578 201.453 98.7218 201.453 100.973C201.453 103.225 242.941 129.402 247.138 129.1C251.335 128.799 282.389 66.7477 239.853 51.7402Z"
      fill="#AB8FE2" />
    <path
      d="M250.571 63.8667C250.27 66.0917 238.008 64.5758 238.336 62.1913L240.377 47.3345L252.612 49.0099L250.571 63.8667Z"
      fill="#F8CDBA" />
    <path
      d="M239.161 56.2078C239.339 54.887 242.994 50.7473 245.221 51.8288C242.48 50.4193 241.53 46.7672 240.377 47.3345L239.161 56.2078Z"
      fill="black" />
    <path
      d="M253.42 54.0805C244.56 54.0805 237.378 46.905 237.378 38.0535C237.378 29.2021 244.56 22.0266 253.42 22.0266C262.279 22.0266 269.461 29.2021 269.461 38.0535C269.461 46.905 262.279 54.0805 253.42 54.0805Z"
      fill="#F8CDBA" />
    <path
      d="M268.914 43.293C267.448 43.086 266.348 42.3012 266.456 41.5402C266.563 40.7791 267.839 40.33 269.304 40.537C270.769 40.744 271.87 41.5288 271.762 42.2899C271.654 43.0509 270.379 43.5001 268.914 43.293Z"
      fill="#FA9E9F" />
    <path
      d="M252.332 41.4753C250.866 41.2742 249.762 40.4938 249.867 39.7323C249.972 38.9708 251.245 38.5166 252.711 38.7178C254.177 38.919 255.281 39.6993 255.176 40.4608C255.072 41.2223 253.798 41.6765 252.332 41.4753Z"
      fill="#FA9E9F" />
    <path d="M263.117 38.6387C263.517 39.4099 265.655 42.7341 262.798 43.5584" stroke="#1F161E" strokeWidth="0.69"
      strokeMiterlimit="10" stroke-linecap="round" />
    <path d="M256.986 46.2975C256.188 46.1645 255.097 45.0299 254.564 44.0459" stroke="#1F161E" strokeWidth="0.69"
      strokeMiterlimit="10" stroke-linecap="round" />
    <path
      d="M258.251 17.4016C253.412 17.4016 239.052 15.0289 235.549 12.5593C234.158 13.5338 229.028 19.4595 225.199 27.086L232.736 32.9754L223.784 30.1366C222.019 34.0717 220.994 38.2985 220.759 42.6054C223.687 48.2284 230.849 49.79 232.156 49.79C240.624 49.79 242.197 36.4315 246.189 34.3009C252.982 30.6693 262.268 36.7221 272.769 34.9425C274.462 29.8703 269.847 17.4016 258.251 17.4016Z"
      fill="#1F161E" />
    <path
      d="M243.624 41.0053C241.674 41.0053 240.093 39.4258 240.093 37.4773C240.093 35.5288 241.674 33.9492 243.624 33.9492C245.574 33.9492 247.156 35.5288 247.156 37.4773C247.156 39.4258 245.574 41.0053 243.624 41.0053Z"
      fill="#F8CDBA" />
    <path
      d="M244.441 294.192C244.157 295.468 242.134 302.915 242.941 304.421C244.405 307.134 260.562 309.598 261.467 309.013C262.372 308.428 263.18 306.974 262.612 306.354C262.044 305.733 255.993 303.074 255.265 302.294C254.538 301.514 254.05 298.083 254.875 296.488"
      fill="#1F161E" />
    <path d="M341.268 316.096H176.325" stroke="#D8D8D8" strokeWidth="4" stroke-linecap="round"
      stroke-linejoin="round" />
    <path d="M318.367 94.2454L306.363 86.551" stroke="#969696" strokeWidth="4" strokeMiterlimit="10"
      stroke-linecap="round" />
    <path
      d="M314.517 95.3357C310.783 95.3357 307.756 93.6133 307.756 91.4885C307.756 89.3638 310.783 87.6414 314.517 87.6414C318.251 87.6414 321.278 89.3638 321.278 91.4885C321.278 93.6133 318.251 95.3357 314.517 95.3357Z"
      fill="#F8CDBA" />
    <path
      d="M319.778 99.6792C316.044 99.6792 313.017 97.9568 313.017 95.832C313.017 93.7073 316.044 91.9849 319.778 91.9849C323.512 91.9849 326.539 93.7073 326.539 95.832C326.539 97.9568 323.512 99.6792 319.778 99.6792Z"
      fill="#F8CDBA" />
    <path d="M331.224 102.48L322.165 96.6741" stroke="#969696" strokeWidth="4" strokeMiterlimit="10"
      stroke-linecap="round" />
    <path
      d="M240.093 107.347C244.29 111.371 262.017 128.063 266.285 128.063C278.174 128.063 314.561 105.813 317.063 99.6969C317.693 98.0216 313.408 93.74 312.219 93.74C311.03 93.74 285.086 107.409 272.061 106.203C264.963 105.565 251.246 80.6738 243.58 72.4653"
      fill="#AB8FE2" />
    <path
      d="M360.424 335.367C349.844 335.367 341.268 326.799 341.268 316.229C341.268 305.659 349.844 297.091 360.424 297.091C371.003 297.091 379.58 305.659 379.58 316.229C379.58 326.799 371.003 335.367 360.424 335.367Z"
      stroke="#969696" strokeWidth="4" strokeMiterlimit="10" />
    <path
      d="M157.169 335.367C146.59 335.367 138.013 326.799 138.013 316.229C138.013 305.659 146.59 297.091 157.169 297.091C167.749 297.091 176.325 305.659 176.325 316.229C176.325 326.799 167.749 335.367 157.169 335.367Z"
      stroke="#969696" strokeWidth="4" strokeMiterlimit="10" />
    <path d="M261.458 96.1955C258.246 91.9937 254.6 86.6751 251.485 82.2251" stroke="#1F161E" stroke-linecap="round"
      stroke-linejoin="round" />
    <path d="M240.093 107.347C242.196 109.359 247.67 114.536 253.162 119.216" stroke="#1F161E" stroke-linecap="round"
      stroke-linejoin="round" />
    <path d="M244.982 112.506C246.18 113.596 252.364 122.372 250.563 125.04C252.861 120.812 253.499 119.5 253.499 119.5"
      fill="#1F161E" />
  </g>
  <defs>
    <clipPath id="clip0_40_26">
      <rect width="381" height="337" fill="white" transform="matrix(-1 0 0 1 381.354 0.14917)" />
    </clipPath>
  </defs>
</svg>