<svg width="15" height="65" viewBox="0 0 15 65" fill="none" xmlns="http://www.w3.org/2000/svg">
<path d="M12.0999 0.889999H3.22992C1.81592 0.889999 0.669922 2.036 0.669922 3.45V62.27C0.669922 63.684 1.81592 64.83 3.22992 64.83H12.0999C13.5139 64.83 14.6599 63.684 14.6599 62.27V3.45C14.6599 2.036 13.5139 0.889999 12.0999 0.889999Z" fill="#969696"/>
<path d="M7.65997 48.65C9.81897 48.65 11.57 46.9 11.57 44.74C11.57 42.581 9.81897 40.83 7.65997 40.83C5.50097 40.83 3.75 42.581 3.75 44.74C3.75 46.9 5.50097 48.65 7.65997 48.65Z" fill="#D8D8D8"/>
<path d="M11.2 50.99H4.11993C3.60093 50.99 3.17993 51.411 3.17993 51.93C3.17993 52.449 3.60093 52.87 4.11993 52.87H11.2C11.719 52.87 12.14 52.449 12.14 51.93C12.14 51.411 11.719 50.99 11.2 50.99Z" fill="#D8D8D8"/>
<path d="M11.2 55.8H4.11993C3.60093 55.8 3.17993 56.221 3.17993 56.74C3.17993 57.259 3.60093 57.68 4.11993 57.68H11.2C11.719 57.68 12.14 57.259 12.14 56.74C12.14 56.221 11.719 55.8 11.2 55.8Z" fill="#D8D8D8"/>
</svg>
