<svg width="792" height="792" viewBox="0 0 792 792" fill="none" xmlns="http://www.w3.org/2000/svg">
<path d="M459.9 0.399988C459.7 0.599988 457.7 1.09999 455.6 1.39999C453.5 1.79999 450.5 2.29999 449.1 2.69999C444.6 3.69999 428.5 10.2 428.2 11.1C428 11.6 427 12 425.9 12C424.9 12 424 12.4 424 13C424 13.5 423.5 14 423 14C421.4 14 408.2 23.1 400.8 29.2C393.2 35.5 378.8 49.9 373.4 56.6C371.3 59.3 368.6 62.5 367.5 63.7C365.3 66.2 364.7 66.9 360.5 72.5C358.9 74.7 357.2 76.6 356.8 76.8C356.4 77 356 77.6 356 78C356 78.5 353.9 81.8 351.3 85.3C348.6 88.9 344.7 94.6 342.5 98.1C340.3 101.6 336.6 107.6 334.3 111.3C331.9 115.1 330 118.4 330 118.6C330 118.8 329 120.7 327.7 122.8C321.8 132.1 306.8 161 307.8 161C308.2 161 308 161.4 307.4 161.8C306.9 162.2 305.4 164.6 304.2 167.2C303 169.7 301.7 172.1 301.3 172.3C298.8 173.8 271 174.6 260 173.5C250.5 172.6 243.4 171.8 241.5 171.4C240.4 171.2 237.7 170.8 235.4 170.6C233.2 170.3 230.2 169.9 228.9 169.6C227.6 169.3 225.4 168.8 224 168.6C208.9 165.9 182.4 159.6 164.5 154.4C157 152.3 152.1 152.4 146.2 155C138.5 158.5 133.2 164.4 131.9 171.4C129.5 183.6 136.8 190.3 157.9 195.6C158.8 195.8 166.7 197.8 175.5 200C184.3 202.2 192.9 204.2 194.5 204.5C196.2 204.7 198.6 205.2 200 205.5C201.4 205.8 204.1 206.3 206 206.6C207.9 206.8 210.6 207.3 212 207.5C216.3 208.4 220.3 209 225.5 209.5C228.3 209.8 231.6 210.2 233 210.4C243.7 211.8 261.7 212.9 274.8 213C281.3 213.1 285 213.5 285 214.2C285 214.8 282.6 221.6 279.6 229.4C274 243.9 265 269.6 262.3 278.5C258.4 291.7 253 310.9 252.5 313.5C251.6 317.5 251 320 250.5 321.7C249.6 325.1 248.1 331.5 247.6 334C247.4 335.4 246.7 338.5 246.2 341C245.6 343.5 244.9 347.1 244.6 349C244.3 350.9 243.6 354.8 243.1 357.7C242.5 360.6 241.8 365.1 241.5 367.7C241.2 370.3 240.7 374.1 240.4 376C239.9 379.5 239.3 384.8 238.5 393C237.8 399.7 237.8 421.6 238.5 428.5C239 433.8 239.8 440.7 240.4 445C242.3 458.8 250.4 478.8 257.6 487.7C264.3 495.9 267.8 498.7 277.5 503.3C296 512.1 322.9 508.9 349 494.7C361.1 488.2 365.5 485.6 365.8 484.8C366 484.4 366.8 484 367.6 484C368.4 484 369 483.5 369 483C369 482.4 369.4 482 370 482C370.8 482 378 477.2 383 473.3C394.4 464.4 405.4 455.6 406.9 454.2C407.9 453.3 412.7 448.9 417.6 444.5C422.4 440.1 433.1 429.8 441.2 421.6C453 409.6 455.8 407.2 455.4 409.4C455.2 410.9 453.8 416.7 452.4 422.3C451 427.9 449.7 433.2 449.6 434C449.4 434.8 448.7 437.3 448.2 439.5C447.6 441.7 446.9 444.6 446.6 446C446.3 447.4 444.4 455.4 442.3 463.9C438.7 478.8 438.4 479.3 435 481.5C429.8 484.9 402 501.9 398.3 504.1C385.9 511.2 342.1 540.5 327 551.8C277 589.2 247.4 622.4 232.8 657.5C230.2 663.5 227.2 672.1 226.4 675.5C222.9 690.4 222.7 692.7 222.6 708C222.6 722.3 222.9 725.9 225.5 735.5C227.3 742.2 234.2 756.5 237.4 760.3C243.7 767.5 245.9 769.8 250 773.2C258.1 779.8 273.2 786.8 283.5 788.6C297.1 791 314.6 791 327 788.5C331.1 787.7 336.5 786.6 337 786.5C339.5 785.9 349.8 782.5 351 781.9C351.8 781.5 354.8 780.1 357.5 778.9C379.4 769 400.2 750.9 418.6 726C423.1 719.9 433.7 703.2 436.1 698.5C437 696.8 439.7 691.7 442.2 687C452.5 667.5 469 626.6 475.5 604C476.2 601.5 478.6 593.6 480.8 586.5C483.1 579.3 487.9 562.2 491.5 548.5C495.1 534.7 498.5 521.9 499 520C499.6 518.1 500.2 515.4 500.5 514C500.7 512.6 501.6 509 502.5 506C503.3 503 504.3 499.1 504.6 497.5C504.9 495.8 505.3 494 505.5 493.5C505.6 492.9 506.1 491.1 506.5 489.4C507 487.2 508.4 485.5 511.2 483.9C513.4 482.6 515.9 481 516.9 480.5C517.8 479.9 520 478.5 521.7 477.2C523.4 476 525 475 525.3 475C525.7 475 559.8 452.7 565 449C565.8 448.4 570.2 445.4 574.6 442.2C579.1 439.1 584.1 435.5 585.6 434.3C587.2 433.1 591.9 429.6 596 426.5C600.1 423.4 604.6 419.9 606 418.7C607.4 417.5 610.5 414.9 613 413C631.3 398.8 657.3 370.9 658.7 364.1C659.7 358.9 659.7 358.9 658.3 354.5C654.9 344 642.4 336.8 631.9 339.2C629.1 339.8 624.6 343.1 620.7 347.4C613.4 355.2 601.3 367.5 594.9 373.5C589.1 378.9 586 381.6 574.6 391.1C565.3 398.9 531.3 422.6 523.3 426.9C521.3 427.9 521 427.8 521 426.3C521 425.3 521.5 422.8 522.1 420.6C522.7 418.5 523.3 416 523.5 415.1C523.9 413.2 526.7 401.4 531.5 381.4C533.4 373.6 535.2 366.1 535.4 364.9C535.7 363.6 535.9 362.5 536 362.5C536.1 362.5 536.3 361.6 536.5 360.5C536.7 359.4 538.3 352.6 540 345.5C541.8 338.3 543.4 331.7 543.6 330.7C544.6 326.6 544.9 325.3 546 321C547.8 314.3 548 307.9 546.5 303.7C539.4 283.1 504.4 276.5 488.2 292.8C486.1 294.9 481.9 301.7 478.6 308.4C475.3 314.9 472.1 320.8 471.6 321.4C471 322 468.1 326.1 465.1 330.5C462.1 334.9 459.3 338.9 458.8 339.5C458.4 340 456.6 342.3 455 344.5C451.7 348.9 447.1 354.6 445.5 356.4C445 357 442.9 359.5 440.9 362C425.7 380.8 400.3 407.3 384 421.5C381 424.2 378.3 426.6 378 426.9C376.3 428.9 359.9 441.5 356.9 443C355.6 443.7 354.3 444.6 354 445C352.8 446.5 339 453.8 333.5 455.7C320.7 460.4 315.2 459.1 311.1 450.7C308.8 445.9 308.5 444.8 306.6 433C305 422.4 305.6 387.1 307.6 377.8C307.9 376.5 308.3 373.7 308.5 371.5C308.8 369.3 309.2 366.4 309.5 365C309.7 363.6 310.2 361.1 310.5 359.5C310.9 356.9 314.6 338 315.5 334C317.9 323.2 324.2 300.3 328.2 288C329.9 282.8 331.3 278 331.5 277.5C331.6 276.9 332 275.8 332.3 275C332.6 274.2 334.6 268.3 336.8 262C340.9 250.2 351 223.2 353.7 217C354.5 215.1 355.8 212.1 356.5 210.4C357.6 207.7 358.7 207 363.2 206C366.1 205.3 373.7 203.2 380 201.3C386.3 199.4 392 197.8 392.5 197.7C393.1 197.6 394 197.2 394.5 196.9C395.1 196.5 396.9 195.9 398.5 195.5C400.2 195 401.7 194.6 402 194.5C402.3 194.4 404.1 193.7 406.1 192.8C408.1 191.9 410.8 190.9 412.1 190.6C413.4 190.2 415.4 189.5 416.5 189C417.6 188.5 421.1 187 424.3 185.6C427.5 184.2 430.3 183 430.6 183C431.2 183 455.1 171 460.5 168C464.9 165.5 487.2 151 488 150.1C488.3 149.8 490.8 147.7 493.5 145.6C501.9 139 518.2 121.8 523.5 113.9C526.2 109.8 528.5 106.3 528.5 106C528.5 105.7 529.3 104.4 530.2 103C533 98.8 537.6 86.3 539.6 77.5C540.9 71.5 540.9 54.4 539.5 49.2C538.8 46.3 538.3 44 538.6 44C538.8 44 537.2 40.5 535 36.2C523.8 14.1 501.8 1.49999 472.9 0.399988C466 0.199988 460.2 0.199988 459.9 0.399988ZM486.3 48.8C495.1 52.7 497.8 66.6 492.4 79.6C491.6 81.5 491.2 83 491.4 83C492.1 83 486.1 94 483.5 97.5C471.5 114.1 453.2 128.4 426.5 141.9C415.8 147.4 394.7 156.5 390.5 157.5C390 157.6 388.2 158.2 386.6 158.9C385 159.5 383.3 159.9 382.9 159.8C381.9 159.4 390.6 142.3 401.4 123.4C407.5 112.7 421.5 91.8 428.7 82.7C435.9 73.5 451.5 58 457.6 53.7C466.7 47.5 478.7 45.4 486.3 48.8ZM423.4 539.7C423.1 541.3 420.8 549.9 418.3 559C415.9 568.1 413.8 576.4 413.6 577.5C413.4 578.6 413.2 579.5 413.1 579.5C412.9 579.5 412.7 580.2 412.5 581C411.1 587.8 398.3 627.1 396.3 631C395.6 632.4 395 634 395 634.7C395 635.4 394.3 637.4 393.5 639.2C392.7 641 390.7 645.9 388.9 650C380.2 670.8 366.9 694 356.3 707C350.8 713.9 338.4 725.6 331.8 730.3C319.5 739.1 303.8 745.1 295 744.4C279.8 743.3 270.2 734.1 267.5 718.3C265.4 706 268.6 685.5 274.7 672C275.5 670.1 276.9 666.9 277.8 665C279.4 661.4 288.8 645.9 289.9 645C290.2 644.7 292.7 641.6 295.4 638C308.6 620.7 340 592.8 368 573.4C372.7 570.2 376.7 567.3 377 567C377.3 566.7 386.1 560.9 396.5 554.1C407 547.3 417.1 540.8 419 539.5C423.6 536.4 424.2 536.4 423.4 539.7Z" fill="url(#paint0_linear_51_2)"/>
<defs>
<linearGradient id="paint0_linear_51_2" x1="395.434" y1="790.388" x2="395.434" y2="0.25" gradientUnits="userSpaceOnUse">
<stop stop-color="#AE95F8"/>
<stop offset="1" stop-color="#F8CDBA"/>
</linearGradient>
</defs>
</svg>
