<svg width="46" height="32" viewBox="0 0 46 32" fill="none" xmlns="http://www.w3.org/2000/svg">
  <path
    d="M37.36 6.12H3.51999C2.05599 6.12 0.869995 7.307 0.869995 8.77V29.23C0.869995 30.694 2.05599 31.88 3.51999 31.88H37.36C38.824 31.88 40.01 30.694 40.01 29.23V8.77C40.01 7.307 38.824 6.12 37.36 6.12Z"
    fill="#D8D8D8" />
  <path d="M2.10001 6.92999L20.44 19" stroke="#969696" strokeWidth="0.82" stroke-linecap="round"
    stroke-linejoin="round" />
  <path d="M40.01 6.12L20.44 19" stroke="#969696" strokeWidth="0.82" stroke-linecap="round" stroke-linejoin="round" />
  <path
    d="M40.01 11.72C43.103 11.72 45.61 9.21301 45.61 6.12001C45.61 3.02701 43.103 0.52002 40.01 0.52002C36.917 0.52002 34.41 3.02701 34.41 6.12001C34.41 9.21301 36.917 11.72 40.01 11.72Z"
    fill="#FBDC8E" />
  <path d="M40.806 2.67102V7.98001H40.163V3.34502H40.132L38.836 4.20601V3.55202L40.163 2.67102H40.806Z" fill="white" />
</svg>