<svg width="133" height="198" viewBox="0 0 133 198" fill="none" xmlns="http://www.w3.org/2000/svg">
<path d="M4.34214 48.1008C17.0536 52.0679 28.5189 53.314 38.4679 53.314H38.9664C32.2472 69.7746 27.7712 86.7338 27.0234 99.9438C26.5249 109.426 28.0204 127.091 42.9439 127.091C54.6689 127.091 69.8833 114.161 81.6082 101.439L77.1113 119.883C49.9332 136.313 24.2817 152.275 23.0355 175.714C22.2877 188.426 30.2429 197.627 43.4529 197.627C75.3666 197.627 86.0946 155.515 94.3093 121.618C108.246 112.915 122.952 103.184 130.928 93.2141C135.663 88.4784 127.438 81.2398 122.952 86.4844C116.471 93.9617 108.246 100.691 97.5494 107.182L104.508 77.9998C104.508 70.024 90.581 68.03 87.8393 75.7566C83.8514 85.4875 58.4075 114.66 47.6796 114.66C45.1872 114.66 43.4424 110.422 43.9409 99.6944C44.6887 85.4874 50.1825 68.03 56.9121 51.8187C73.3726 48.1008 101.527 36.3864 102.763 16.426C103.261 6.21733 94.5585 0.00671387 85.0976 0.00671387C65.8953 0.00671387 50.4317 27.1538 42.9439 43.1262C32.4964 44.6217 20.2938 41.8799 6.83457 38.1412C3.59438 38.1412 0.603435 40.3844 0.35419 43.3753C0.104944 46.1066 1.84967 47.1038 4.09287 48.1008H4.34214ZM46.4438 184.947C39.7142 187.938 33.7219 185.196 34.2204 176.213C34.9681 160.261 52.6749 147.041 73.6219 134.069C68.637 153.521 62.1567 177.719 46.4438 184.947ZM82.1066 13.1857C85.5961 11.1917 91.3287 10.4441 91.3287 16.426C90.581 28.4105 74.3697 36.3863 62.9044 40.1353C67.8893 29.9059 75.1174 17.9317 82.3559 13.1857H82.1066Z" fill="#78E5E1"/>
</svg>
