<svg width="608" height="954" viewBox="0 0 608 954" fill="none" xmlns="http://www.w3.org/2000/svg">
  <g opacity="0.76">
    <path opacity="0.76"
      d="M482.78 430.79H351.22C282.063 430.79 226 486.853 226 556.01V828.35C226 897.507 282.063 953.57 351.22 953.57H482.78C551.937 953.57 608 897.507 608 828.35V556.01C608 486.853 551.937 430.79 482.78 430.79Z"
      fill="#7CE4DF" />
  </g>
  <path
    d="M435.78 394.22C468.163 394.323 499.191 407.233 522.089 430.131C544.987 453.03 557.897 484.057 558 516.44V788.78C557.897 821.163 544.987 852.191 522.089 875.089C499.191 897.988 468.163 910.897 435.78 911H304.22C271.837 910.897 240.809 897.988 217.911 875.089C195.013 852.191 182.103 821.163 182 788.78V516.44C182.103 484.057 195.013 453.03 217.911 430.131C240.809 407.233 271.837 394.323 304.22 394.22H435.78ZM435.78 391.22H304.22C235.35 391.22 179 447.57 179 516.44V788.78C179 857.65 235.35 914 304.22 914H435.78C504.65 914 561 857.65 561 788.78V516.44C561 447.57 504.65 391.22 435.78 391.22Z"
    fill="black" />
  <path d="M370 391.22H304.22C235.35 391.22 179 447.57 179 516.44V543H370V391.22Z" fill="#F7D999" />
  <path d="M179.41 543.11H560.59" stroke="black" strokeWidth="3" strokeMiterlimit="10" />
  <path d="M369.59 539.11V153.5H2.5V2.5" stroke="#7CE4DF" strokeWidth="5" stroke-linecap="round"
    stroke-linejoin="round" />
  <path
    d="M362.4 732.8C370.342 732.8 376.78 726.362 376.78 718.42C376.78 710.478 370.342 704.04 362.4 704.04C354.458 704.04 348.02 710.478 348.02 718.42C348.02 726.362 354.458 732.8 362.4 732.8Z"
    fill="#AE95F8" />
  <path
    d="M402.91 732.8C410.852 732.8 417.29 726.362 417.29 718.42C417.29 710.478 410.852 704.04 402.91 704.04C394.968 704.04 388.53 710.478 388.53 718.42C388.53 726.362 394.968 732.8 402.91 732.8Z"
    fill="#AE95F8" />
  <path
    d="M443.43 732.8C451.372 732.8 457.81 726.362 457.81 718.42C457.81 710.478 451.372 704.04 443.43 704.04C435.488 704.04 429.05 710.478 429.05 718.42C429.05 726.362 435.488 732.8 443.43 732.8Z"
    fill="#AE95F8" />
  <path
    d="M483.94 732.8C491.882 732.8 498.32 726.362 498.32 718.42C498.32 710.478 491.882 704.04 483.94 704.04C475.998 704.04 469.56 710.478 469.56 718.42C469.56 726.362 475.998 732.8 483.94 732.8Z"
    fill="#AE95F8" />
  <path
    d="M524.46 732.8C532.402 732.8 538.84 726.362 538.84 718.42C538.84 710.478 532.402 704.04 524.46 704.04C516.518 704.04 510.08 710.478 510.08 718.42C510.08 726.362 516.518 732.8 524.46 732.8Z"
    fill="#AE95F8" />
  <path
    d="M564.97 732.8C572.912 732.8 579.35 726.362 579.35 718.42C579.35 710.478 572.912 704.04 564.97 704.04C557.028 704.04 550.59 710.478 550.59 718.42C550.59 726.362 557.028 732.8 564.97 732.8Z"
    fill="#AE95F8" />
  <path
    d="M362.4 816.45C370.342 816.45 376.78 810.012 376.78 802.07C376.78 794.128 370.342 787.69 362.4 787.69C354.458 787.69 348.02 794.128 348.02 802.07C348.02 810.012 354.458 816.45 362.4 816.45Z"
    fill="#AE95F8" />
  <path
    d="M402.91 816.45C410.852 816.45 417.29 810.012 417.29 802.07C417.29 794.128 410.852 787.69 402.91 787.69C394.968 787.69 388.53 794.128 388.53 802.07C388.53 810.012 394.968 816.45 402.91 816.45Z"
    fill="#AE95F8" />
  <path
    d="M443.43 816.45C451.372 816.45 457.81 810.012 457.81 802.07C457.81 794.128 451.372 787.69 443.43 787.69C435.488 787.69 429.05 794.128 429.05 802.07C429.05 810.012 435.488 816.45 443.43 816.45Z"
    fill="#AE95F8" />
  <path
    d="M483.94 816.45C491.882 816.45 498.32 810.012 498.32 802.07C498.32 794.128 491.882 787.69 483.94 787.69C475.998 787.69 469.56 794.128 469.56 802.07C469.56 810.012 475.998 816.45 483.94 816.45Z"
    fill="#AE95F8" />
  <path
    d="M524.46 816.45C532.402 816.45 538.84 810.012 538.84 802.07C538.84 794.128 532.402 787.69 524.46 787.69C516.518 787.69 510.08 794.128 510.08 802.07C510.08 810.012 516.518 816.45 524.46 816.45Z"
    fill="#AE95F8" />
  <path
    d="M564.97 816.45C572.912 816.45 579.35 810.012 579.35 802.07C579.35 794.128 572.912 787.69 564.97 787.69C557.028 787.69 550.59 794.128 550.59 802.07C550.59 810.012 557.028 816.45 564.97 816.45Z"
    fill="#AE95F8" />
  <path
    d="M383.31 774.62C391.252 774.62 397.69 768.182 397.69 760.24C397.69 752.298 391.252 745.86 383.31 745.86C375.368 745.86 368.93 752.298 368.93 760.24C368.93 768.182 375.368 774.62 383.31 774.62Z"
    fill="#AE95F8" />
  <path
    d="M423.82 774.62C431.762 774.62 438.2 768.182 438.2 760.24C438.2 752.298 431.762 745.86 423.82 745.86C415.878 745.86 409.44 752.298 409.44 760.24C409.44 768.182 415.878 774.62 423.82 774.62Z"
    fill="#AE95F8" />
  <path
    d="M464.34 774.62C472.282 774.62 478.72 768.182 478.72 760.24C478.72 752.298 472.282 745.86 464.34 745.86C456.398 745.86 449.96 752.298 449.96 760.24C449.96 768.182 456.398 774.62 464.34 774.62Z"
    fill="#AE95F8" />
  <path
    d="M504.85 774.62C512.792 774.62 519.23 768.182 519.23 760.24C519.23 752.298 512.792 745.86 504.85 745.86C496.908 745.86 490.47 752.298 490.47 760.24C490.47 768.182 496.908 774.62 504.85 774.62Z"
    fill="#AE95F8" />
  <path
    d="M545.37 774.62C553.312 774.62 559.75 768.182 559.75 760.24C559.75 752.298 553.312 745.86 545.37 745.86C537.428 745.86 530.99 752.298 530.99 760.24C530.99 768.182 537.428 774.62 545.37 774.62Z"
    fill="#AE95F8" />
  <path
    d="M585.88 774.62C593.822 774.62 600.26 768.182 600.26 760.24C600.26 752.298 593.822 745.86 585.88 745.86C577.938 745.86 571.5 752.298 571.5 760.24C571.5 768.182 577.938 774.62 585.88 774.62Z"
    fill="#AE95F8" />
  <path
    d="M383.31 858.27C391.252 858.27 397.69 851.832 397.69 843.89C397.69 835.948 391.252 829.51 383.31 829.51C375.368 829.51 368.93 835.948 368.93 843.89C368.93 851.832 375.368 858.27 383.31 858.27Z"
    fill="#AE95F8" />
  <path
    d="M423.82 858.27C431.762 858.27 438.2 851.832 438.2 843.89C438.2 835.948 431.762 829.51 423.82 829.51C415.878 829.51 409.44 835.948 409.44 843.89C409.44 851.832 415.878 858.27 423.82 858.27Z"
    fill="#AE95F8" />
  <path
    d="M464.34 858.27C472.282 858.27 478.72 851.832 478.72 843.89C478.72 835.948 472.282 829.51 464.34 829.51C456.398 829.51 449.96 835.948 449.96 843.89C449.96 851.832 456.398 858.27 464.34 858.27Z"
    fill="#AE95F8" />
  <path
    d="M504.85 858.27C512.792 858.27 519.23 851.832 519.23 843.89C519.23 835.948 512.792 829.51 504.85 829.51C496.908 829.51 490.47 835.948 490.47 843.89C490.47 851.832 496.908 858.27 504.85 858.27Z"
    fill="#AE95F8" />
  <path
    d="M545.37 858.27C553.312 858.27 559.75 851.832 559.75 843.89C559.75 835.948 553.312 829.51 545.37 829.51C537.428 829.51 530.99 835.948 530.99 843.89C530.99 851.832 537.428 858.27 545.37 858.27Z"
    fill="#AE95F8" />
  <path
    d="M585.88 858.27C593.822 858.27 600.26 851.832 600.26 843.89C600.26 835.948 593.822 829.51 585.88 829.51C577.938 829.51 571.5 835.948 571.5 843.89C571.5 851.832 577.938 858.27 585.88 858.27Z"
    fill="#AE95F8" />
</svg>