<svg width="477" height="898" viewBox="0 0 477 898" fill="none" xmlns="http://www.w3.org/2000/svg">
  <path
    d="M393.99 0.569824H48.81C21.853 0.569824 0 22.4228 0 49.3798V848.69C0 875.647 21.853 897.5 48.81 897.5H393.99C420.947 897.5 442.8 875.647 442.8 848.69V49.3798C442.8 22.4228 420.947 0.569824 393.99 0.569824Z"
    fill="#AB8FE2" />
  <path
    d="M383.68 26.6099H62.5202C43.0024 26.6099 27.1802 42.4321 27.1802 61.9499V837.24C27.1802 856.758 43.0024 872.58 62.5202 872.58H383.68C403.198 872.58 419.02 856.758 419.02 837.24V61.9499C419.02 42.4321 403.198 26.6099 383.68 26.6099Z"
    fill="white" />
  <path
    d="M309.88 0H134.05C122.248 0 112.68 9.56768 112.68 21.37V31.86C112.68 43.6623 122.248 53.23 134.05 53.23H309.88C321.682 53.23 331.25 43.6623 331.25 31.86V21.37C331.25 9.56768 321.682 0 309.88 0Z"
    fill="#AB8FE2" />
  <path
    d="M223.1 330.69C285.961 330.69 336.92 279.731 336.92 216.87C336.92 154.009 285.961 103.05 223.1 103.05C160.239 103.05 109.28 154.009 109.28 216.87C109.28 279.731 160.239 330.69 223.1 330.69Z"
    fill="#E2E2E2" />
  <path d="M73.0498 412.23V364.66H475.65V412.23H73.0498Z" fill="#F8DA96" />
  <path d="M278.47 493.77H73.0498V469.98" stroke="black" strokeWidth="1.31" strokeMiterlimit="10" />
  <path d="M278.47 633.06H73.0498V609.28" stroke="black" strokeWidth="1.31" strokeMiterlimit="10" />
  <path d="M73.0498 446.2H475.65V469.98" stroke="black" strokeWidth="1.31" strokeMiterlimit="10" />
  <path d="M73.0498 667.04H475.65V690.82" stroke="black" strokeWidth="1.31" strokeMiterlimit="10" />
  <path d="M475.65 527.74H73.0498V575.3H475.65V527.74Z" fill="#F8DA96" />
  <path d="M129.1 857.3H317.1" stroke="#E2E2E2" strokeWidth="6.79" stroke-linecap="round" stroke-linejoin="round" />
</svg>