<svg width="125" height="210" viewBox="0 0 125 210" fill="none" xmlns="http://www.w3.org/2000/svg">
<path d="M88.06 45C107.06 48.6 103.67 162 67.2 155.14C32.76 148.6 64.88 40.59 88.06 45Z" fill="black"/>
<path d="M4.64 59C19.76 50.44 83.05 130.08 54.1 146.46C26.75 162 -13.77 69.44 4.64 59Z" fill="#FBDC8E"/>
<path d="M81.69 209.92H43.51C41.9722 209.92 40.4885 209.352 39.3428 208.326C38.1971 207.301 37.4698 205.888 37.3 204.36L32.48 161.08C32.3755 160.202 32.4581 159.312 32.7224 158.469C32.9866 157.625 33.4266 156.847 34.0133 156.186C34.5999 155.524 35.32 154.995 36.1261 154.632C36.9322 154.269 37.806 154.081 38.69 154.08H86.31C87.1869 154.081 88.054 154.266 88.8547 154.623C89.6554 154.981 90.3719 155.503 90.9576 156.156C91.5433 156.808 91.9851 157.577 92.2543 158.412C92.5235 159.246 92.614 160.128 92.52 161L87.91 204.28C87.7563 205.824 87.035 207.255 85.8858 208.297C84.7365 209.34 83.2413 209.918 81.69 209.92Z" fill="#969696"/>
<path d="M98.79 0.839996C113.26 5.04 102.17 92.57 74.46 84.51C48.3 76.91 81.18 -4.28 98.79 0.839996Z" fill="#AB8DE5"/>
<path d="M122.65 70.48C132.65 79.1 91.97 145.04 72.75 128.48C54.6 112.91 110.44 60 122.65 70.48Z" fill="#FBDC8E"/>
<path d="M62.7 9.94C84.36 9.94 104.19 148.24 62.7 148.24C23.52 148.24 36.33 9.94 62.7 9.94Z" fill="#78E5E1"/>
<path d="M100.71 144.72H24.51C22.2732 144.72 20.46 146.533 20.46 148.77V156.15C20.46 158.387 22.2732 160.2 24.51 160.2H100.71C102.947 160.2 104.76 158.387 104.76 156.15V148.77C104.76 146.533 102.947 144.72 100.71 144.72Z" fill="#D8D8D8"/>
</svg>
