<svg width="621" height="427" viewBox="0 0 621 427" fill="none" xmlns="http://www.w3.org/2000/svg">
  <path
    d="M545.458 422.747C546.177 425.481 548.977 427.116 551.712 426.397C554.446 425.678 556.081 422.878 555.362 420.143L504.163 225.401C503.444 222.666 500.644 221.032 497.909 221.751C495.175 222.47 493.541 225.27 494.259 228.004L545.458 422.747Z"
    fill="#969696" />
  <path
    d="M493.751 228.013C494.47 225.278 492.836 222.478 490.101 221.759C487.366 221.04 484.566 222.674 483.847 225.409L432.649 420.152C431.93 422.886 433.564 425.686 436.299 426.405C439.033 427.124 441.833 425.49 442.552 422.755L493.751 228.013Z"
    fill="#969696" />
  <path
    d="M423.102 228.011C423.821 225.277 422.187 222.477 419.453 221.758C416.718 221.039 413.918 222.673 413.199 225.408L362 420.15C361.281 422.885 362.915 425.685 365.65 426.404C368.385 427.123 371.185 425.488 371.904 422.754L423.102 228.011Z"
    fill="#D8D8D8" />
  <path
    d="M473.919 419.152C474.626 421.895 477.423 423.546 480.166 422.839C482.909 422.132 484.559 419.335 483.852 416.592L433.512 221.273C432.805 218.53 430.009 216.88 427.266 217.587C424.523 218.294 422.873 221.09 423.579 223.833L473.919 419.152Z"
    fill="#D8D8D8" />
  <path
    d="M134.681 228.016C135.4 225.282 133.766 222.482 131.031 221.763C128.297 221.044 125.497 222.678 124.778 225.413L73.579 420.155C72.86 422.89 74.494 425.69 77.229 426.408C79.964 427.127 82.764 425.493 83.483 422.759L134.681 228.016Z"
    fill="#969696" />
  <path
    d="M185.519 422.759C186.238 425.494 189.038 427.128 191.773 426.409C194.507 425.69 196.141 422.89 195.422 420.156L144.224 225.413C143.505 222.679 140.705 221.045 137.97 221.764C135.235 222.483 133.601 225.282 134.32 228.017L185.519 422.759Z"
    fill="#969696" />
  <path
    d="M525.27 212.14H30.1C27.598 212.14 25.57 214.168 25.57 216.67V222.76C25.57 225.262 27.598 227.29 30.1 227.29H525.27C527.772 227.29 529.8 225.262 529.8 222.76V216.67C529.8 214.168 527.772 212.14 525.27 212.14Z"
    fill="#D8D8D8" />
  <path
    d="M61.507 228.019C62.226 225.284 60.591 222.485 57.857 221.766C55.122 221.047 52.322 222.681 51.603 225.416L0.404002 420.158C-0.314998 422.893 1.32 425.692 4.054 426.411C6.789 427.13 9.589 425.496 10.308 422.762L61.507 228.019Z"
    fill="#D8D8D8" />
  <path
    d="M112.344 422.759C113.063 425.494 115.862 427.128 118.597 426.409C121.332 425.69 122.966 422.89 122.247 420.156L71.048 225.413C70.329 222.679 67.53 221.045 64.795 221.764C62.06 222.483 60.426 225.282 61.145 228.017L112.344 422.759Z"
    fill="#D8D8D8" />
  <path
    d="M396.28 212.14H303.77L320.53 154.5C320.949 153.109 321.806 151.891 322.974 151.028C324.142 150.165 325.558 149.702 327.01 149.71H405.51C406.541 149.693 407.562 149.918 408.491 150.365C409.42 150.813 410.231 151.472 410.861 152.288C411.49 153.105 411.92 154.058 412.116 155.07C412.312 156.083 412.269 157.127 411.99 158.12L396.28 212.14Z"
    fill="black" />
  <path
    d="M361.38 186.58C364.506 186.58 367.04 184.046 367.04 180.92C367.04 177.794 364.506 175.26 361.38 175.26C358.254 175.26 355.72 177.794 355.72 180.92C355.72 184.046 358.254 186.58 361.38 186.58Z"
    fill="white" />
  <path d="M314.76 208.09H249.85V212.14H314.76V208.09Z" fill="black" />
  <path
    d="M541.89 8.27C541.89 7.867 541.563 7.53999 541.16 7.53999C540.757 7.53999 540.43 7.867 540.43 8.27V42.43C540.43 42.833 540.757 43.16 541.16 43.16C541.563 43.16 541.89 42.833 541.89 42.43V8.27Z"
    fill="#969696" />
  <path
    d="M511.18 51.44H504.92C503.545 51.44 502.43 52.555 502.43 53.93C502.43 55.305 503.545 56.42 504.92 56.42H511.18C512.555 56.42 513.67 55.305 513.67 53.93C513.67 52.555 512.555 51.44 511.18 51.44Z"
    fill="#D8D8D8" />
  <path
    d="M587.94 51.44H581.68C580.305 51.44 579.19 52.555 579.19 53.93C579.19 55.305 580.305 56.42 581.68 56.42H587.94C589.315 56.42 590.43 55.305 590.43 53.93C590.43 52.555 589.315 51.44 587.94 51.44Z"
    fill="#D8D8D8" />
  <path
    d="M619.43 49.83H473.43C472.751 49.83 472.2 50.381 472.2 51.06V51.82C472.2 52.499 472.751 53.05 473.43 53.05H619.43C620.109 53.05 620.66 52.499 620.66 51.82V51.06C620.66 50.381 620.109 49.83 619.43 49.83Z"
    fill="#D8D8D8" />
  <path
    d="M542.53 0.880005H539.79C538.614 0.880005 537.66 1.83399 537.66 3.00999V47.7C537.66 48.876 538.614 49.83 539.79 49.83H542.53C543.706 49.83 544.66 48.876 544.66 47.7V3.00999C544.66 1.83399 543.706 0.880005 542.53 0.880005Z"
    fill="#D8D8D8" />
  <path
    d="M549.6 0.880005H546.72C545.582 0.880005 544.66 1.802 544.66 2.94V47.77C544.66 48.908 545.582 49.83 546.72 49.83H549.6C550.738 49.83 551.66 48.908 551.66 47.77V2.94C551.66 1.802 550.738 0.880005 549.6 0.880005Z"
    fill="#969696" />
  <path
    d="M554.676 4.384L552.313 5.468C551.209 5.975 550.725 7.281 551.232 8.386L569.819 48.873C570.326 49.977 571.632 50.461 572.737 49.954L575.099 48.869C576.204 48.362 576.688 47.056 576.181 45.952L557.593 5.46499C557.086 4.36099 555.78 3.877 554.676 4.384Z"
    fill="#D8D8D8" />
  <path
    d="M208.04 324.91C242.895 324.91 271.15 318.664 271.15 310.96C271.15 303.255 242.895 297.01 208.04 297.01C173.185 297.01 144.93 303.255 144.93 310.96C144.93 318.664 173.185 324.91 208.04 324.91Z"
    fill="black" />
  <path d="M208.04 310.96L172.59 421.91" stroke="black" strokeWidth="4" strokeMiterlimit="10" stroke-linecap="round" />
  <path d="M208.04 310.96L243.49 421.91" stroke="black" strokeWidth="4" strokeMiterlimit="10" stroke-linecap="round" />
  <path d="M184.23 385.48L223.75 360.14" stroke="black" strokeWidth="2" strokeMiterlimit="10" stroke-linecap="round" />
  <path d="M192.17 360.14L231.7 385.48" stroke="black" strokeWidth="2" strokeMiterlimit="10" stroke-linecap="round" />
</svg>