<svg width="158" height="106" viewBox="0 0 158 106" fill="none" xmlns="http://www.w3.org/2000/svg">
<path d="M149.691 0H8.30857C3.71988 0 0 3.72532 0 8.32073V54.5653C0 59.1607 3.71988 62.886 8.30857 62.886H149.691C154.28 62.886 158 59.1607 158 54.5653V8.32073C158 3.72532 154.28 0 149.691 0Z" fill="#78E5E1"/>
<path d="M79 106L98.0302 48.2493H59.9698L79 106Z" fill="#78E5E1"/>
<path d="M41.2687 16.7513L25.3096 44.4047H57.2277L41.2687 16.7513Z" fill="white"/>
<path d="M116.704 44.4047L132.663 16.7513H100.772L116.704 44.4047Z" fill="white"/>
<path d="M79 42.5648C85.618 42.5648 90.983 37.1919 90.983 30.5642C90.983 23.9365 85.618 18.5637 79 18.5637C72.382 18.5637 67.017 23.9365 67.017 30.5642C67.017 37.1919 72.382 42.5648 79 42.5648Z" fill="white"/>
</svg>
