<svg width="379" height="667" viewBox="0 0 379 667" fill="none" xmlns="http://www.w3.org/2000/svg">
  <path
    d="M339.092 282.867C377.908 300.526 382.355 365.99 375.303 380.623C364.026 403.992 322.987 437.81 311.947 461.154C307.211 471.18 267.145 575.634 229.882 563.449C196.711 552.567 178.566 504.538 197.303 471.128C224.934 421.73 236.066 355.832 245.855 338.225C258.776 315.079 301.316 265.682 339.092 282.867Z"
    fill="#50B89D" />
  <path d="M215.987 663.257C215.987 639.335 230.461 447.916 299.303 369.727" stroke="#FBDC8E" strokeWidth="3"
    strokeMiterlimit="10" stroke-linecap="round" />
  <path d="M274.803 405.992L259.895 348.963" stroke="#FBDC8E" strokeWidth="3" strokeMiterlimit="10"
    stroke-linecap="round" />
  <path
    d="M104.553 0.442383C158.105 0.442383 176.184 36.7603 176.184 61.9986C176.184 114.633 164.789 102.896 164.789 157.307C164.789 215.758 239.684 289.591 239.684 390.57C239.684 528.605 119.197 548.843 104.553 548.843C28.579 548.843 0.342102 465.233 0.342102 414.519C0.342102 354.45 53.2632 290.078 53.2632 232.153C53.2632 189.782 39.4211 173.321 39.4211 107.633C39.4737 41.629 77.6316 0.442383 104.553 0.442383Z"
    fill="#73E5E2" />
  <path d="M100.54 663.257V87.4211" stroke="#FBDC8E" strokeWidth="3" strokeMiterlimit="10" stroke-linecap="round" />
  <path
    d="M138.066 666.271C138.82 661.81 139.199 657.294 139.197 652.77C139.197 616.86 115.842 587.753 87.0263 587.753C58.2105 587.753 34.8684 616.86 34.8684 652.77C34.8675 657.294 35.246 661.81 36 666.271H138.066Z"
    fill="#99574A" />
  <path d="M100.54 461.153L189.75 369.727" stroke="#FBDC8E" strokeWidth="3" strokeMiterlimit="10"
    stroke-linecap="round" />
  <path d="M98.3158 204.546L69.5789 175.808" stroke="#FBDC8E" strokeWidth="3" strokeMiterlimit="10"
    stroke-linecap="round" />
  <path d="M100.54 127.476L140.658 87.3555" stroke="#FBDC8E" strokeWidth="3" strokeMiterlimit="10"
    stroke-linecap="round" />
  <path
    d="M88.0658 666.271C88.0658 653.901 110.434 611.004 148.592 611.004C185.868 611.004 194.434 624.663 225.368 624.663C248.474 624.663 246.895 615.557 268.566 615.557C312.882 615.557 330.118 650.691 330.118 666.31L88.0658 666.271Z"
    fill="#B37361" />
</svg>