<svg width="268" height="145" viewBox="0 0 268 145" fill="none" xmlns="http://www.w3.org/2000/svg">
<path d="M233.345 145L198.69 114.383H234.038L233.345 145Z" fill="#73E5E2"/>
<path d="M47.7779 117.849L220.222 117.849C246.609 117.849 268 96.4539 268 70.0622V47.7865C268 21.3948 246.609 3.05176e-05 220.222 3.05176e-05L47.7779 3.05176e-05C21.3909 3.05176e-05 0 21.3948 0 47.7865V70.0622C0 96.4539 21.3909 117.849 47.7779 117.849Z" fill="#73E5E2"/>
<path d="M169.81 69.3227C175.552 69.3227 180.207 64.6672 180.207 58.9243C180.207 53.1814 175.552 48.5259 169.81 48.5259C164.069 48.5259 159.414 53.1814 159.414 58.9243C159.414 64.6672 164.069 69.3227 169.81 69.3227Z" fill="white"/>
<path d="M134 69.3227C139.742 69.3227 144.396 64.6672 144.396 58.9243C144.396 53.1814 139.742 48.5259 134 48.5259C128.258 48.5259 123.603 53.1814 123.603 58.9243C123.603 64.6672 128.258 69.3227 134 69.3227Z" fill="white"/>
<path d="M98.1896 69.3227C103.932 69.3227 108.586 64.6672 108.586 58.9243C108.586 53.1814 103.932 48.5259 98.1896 48.5259C92.4478 48.5259 87.7931 53.1814 87.7931 58.9243C87.7931 64.6672 92.4478 69.3227 98.1896 69.3227Z" fill="white"/>
</svg>
