<svg width="530" height="349" viewBox="0 0 530 349" fill="none" xmlns="http://www.w3.org/2000/svg">
  <path d="M529.5 0.5H0.5V348.5H529.5V0.5Z" stroke="black" strokeMiterlimit="10" />
  <path d="M0.5 19H529.5" stroke="black" strokeMiterlimit="10" />
  <path d="M198 50H39V209H198V50Z" stroke="black" strokeMiterlimit="10" />
  <path d="M228.5 64H471.5" stroke="black" strokeMiterlimit="10" />
  <path d="M228.5 88H471.5" stroke="black" strokeMiterlimit="10" />
  <path d="M228.5 112H471.5" stroke="black" strokeMiterlimit="10" />
  <path d="M228.5 136H471.5" stroke="black" strokeMiterlimit="10" />
  <path opacity="0.44" d="M118.5 92L75.2002 167H161.8L118.5 92Z" fill="#50B89D" />
  <path
    d="M12 14.5C14.4853 14.5 16.5 12.4853 16.5 10C16.5 7.51472 14.4853 5.5 12 5.5C9.51472 5.5 7.5 7.51472 7.5 10C7.5 12.4853 9.51472 14.5 12 14.5Z"
    fill="#AB8DE5" />
  <path
    d="M27.5 14.5C29.9853 14.5 32 12.4853 32 10C32 7.51472 29.9853 5.5 27.5 5.5C25.0147 5.5 23 7.51472 23 10C23 12.4853 25.0147 14.5 27.5 14.5Z"
    fill="#73E5E2" />
  <path
    d="M43 14.5C45.4853 14.5 47.5 12.4853 47.5 10C47.5 7.51472 45.4853 5.5 43 5.5C40.5147 5.5 38.5 7.51472 38.5 10C38.5 12.4853 40.5147 14.5 43 14.5Z"
    fill="#50B89D" />
</svg>