<svg width="316" height="449" viewBox="0 0 316 449" fill="none" xmlns="http://www.w3.org/2000/svg">
  <path
    d="M238.19 428.68C238.19 431.05 236.8 446 239.57 447.38C242.34 448.76 272.79 449.6 274.17 448.21C275.55 446.82 276.38 443.92 275.17 443.09C273.96 442.26 262.17 439.91 260.57 438.8C258.97 437.69 256.76 431.8 257.57 428.68"
    fill="#1F161E" />
  <path
    d="M147.15 233.25L164.29 227.1C163.55 195.83 156.24 125.96 145.86 115.57C143.42 113.14 95.16 108.9 86.55 108.9C35.17 108.9 19.93 114.76 16.06 118.64C4.06 130.64 0.320007 186.24 0.320007 205.71C0.320007 225.18 55.32 235.28 55.32 235.28L119.79 239.71C119.79 239.71 133.93 241.17 146.16 241.89C146.43 238.14 147.15 233.25 147.15 233.25Z"
    fill="#78E5E1" />
  <path
    d="M198.22 251.38C202.91 249.99 249.55 242.38 259.71 252.38C269.87 262.38 301.85 405.75 301.85 409.05H276.1L241.34 334.24"
    fill="#1F161E" />
  <path
    d="M28.41 238.63C27.24 244.48 20.21 250.76 20.21 282.63C20.21 326.7 56.31 327.63 69.27 327.63C109.65 327.63 174.98 315.63 179.39 313.43C182.32 318.33 236.25 428.43 236.5 430.89H261.33C261.33 430.89 245.94 266.17 218.17 247.49C209.15 241.49 49.12 235.07 28.41 238.63Z"
    fill="#55B79D" />
  <path
    d="M173.81 206.41C167.29 206.41 161.91 207.96 147.15 210.86L146.38 239.1C160.38 233.46 163.63 225.62 167.69 225.62C177.83 225.62 183.13 230.85 189.12 230.85C193.3 230.85 200.82 227.57 200.82 223.11C200.82 213.77 181.89 206.41 173.81 206.41Z"
    fill="#F8CDBA" />
  <path
    d="M277.56 407.07C277.56 409.45 276.17 424.39 278.94 425.78C281.71 427.17 312.16 427.99 313.54 426.61C314.92 425.23 315.75 422.32 314.54 421.49C313.33 420.66 301.54 418.3 299.94 417.19C298.34 416.08 296.13 410.19 296.94 407.07"
    fill="#1F161E" />
  <path d="M135.5 152.62C137.5 156.87 147.15 197.87 147.15 210.86" stroke="#1F161E" strokeMiterlimit="10"
    stroke-linecap="round" />
  <path
    d="M0.320007 202.41C0.320007 248.5 0.75 261.87 19.25 261.87C61.89 261.87 126.35 226.87 137.84 226.87C147.99 226.87 153.29 232.11 159.28 232.11C163.45 232.11 170.97 228.82 170.97 224.37C170.97 215.02 152.04 207.66 143.97 207.66C125.8 207.66 53.29 225.18 51.52 225.18C49.75 225.18 46.77 224.41 46.77 221.43C46.77 216.02 50.31 203.52 50.77 202.43L0.320007 202.41Z"
    fill="#F8CDBA" />
  <path d="M61.42 162.21C60.2 165.72 50.69 201.99 49.59 206.41" stroke="#1F161E" strokeMiterlimit="10"
    stroke-linecap="round" />
  <path d="M100 80H66V111.17C66 118.977 100 118.91 100 111.17V80Z" fill="#F8CDBA" />
  <path
    d="M66.1079 102.154C66.1079 98.1496 77.2033 88.0875 84.0621 88.4363C84.23 84.0704 68.3942 77.6121 68.3942 77.6121L66.1079 83.7733V102.154Z"
    fill="#1F161E" />
  <path
    d="M134.863 80.3889C135.618 76.9003 135.999 73.341 136 69.7714C136 43.1373 115.191 21.5406 89.5 21.5406C63.8087 21.5406 43 43.1373 43 69.7714C43.0008 73.341 43.3818 76.9003 44.1367 80.3889H134.863Z"
    fill="#1F161E" />
  <path
    d="M122.605 47.9035C116.909 47.0381 111.226 42.556 107.26 39.6239C84.6562 56.1831 70.1767 56.4156 68.6138 56.4156C67.0508 56.4156 60.6829 65.5606 57.7508 66.5939L57.4925 66.4389C58.3707 71.2463 60.2385 75.8186 62.9774 79.8658C65.7164 83.913 69.2666 87.3466 73.403 89.9491C77.5393 92.5514 82.1713 94.2656 87.0058 94.9828C91.8392 95.7001 96.7695 95.4048 101.483 94.1156C106.197 92.8265 110.592 90.5716 114.388 87.4941C118.184 84.4166 121.298 80.5837 123.535 76.2385C125.771 71.8932 127.08 67.1307 127.378 62.2529C127.677 57.3752 126.957 52.4887 125.266 47.9035C124.383 48.0133 123.489 48.0133 122.605 47.9035Z"
    fill="#F8CDBA" />
  <path
    d="M64.3125 27.5471C71.8885 27.5471 78.03 21.4056 78.03 13.8296C78.03 6.25363 71.8885 0.112091 64.3125 0.112091C56.7366 0.112091 50.595 6.25363 50.595 13.8296C50.595 21.4056 56.7366 27.5471 64.3125 27.5471Z"
    fill="#1F161E" />
  <path
    d="M70.4221 55.6537C68.9396 55.7239 67.5413 56.3622 66.517 57.4361C65.4927 58.51 64.9213 59.937 64.9213 61.421C64.9213 62.905 65.4927 64.3321 66.517 65.406C67.5413 66.4798 68.9396 67.1182 70.4221 67.1883"
    stroke="#1F161E" strokeMiterlimit="10" stroke-linecap="round" />
  <path d="M114.39 56.3513C116.083 58.6117 120.435 62.5642 114.39 66.7621" stroke="#1F161E" strokeMiterlimit="10"
    stroke-linecap="round" />
  <path d="M96.0617 69.8621C96.0617 71.5542 96.785 75.5971 100.415 76.6433" stroke="#1F161E" strokeMiterlimit="10"
    stroke-linecap="round" />
  <path
    d="M84.8112 70.2238C87.7498 70.2238 90.1329 68.9862 90.1329 67.4596C90.1329 65.933 87.7498 64.6954 84.8112 64.6954C81.8722 64.6954 79.4896 65.933 79.4896 67.4596C79.4896 68.9862 81.8722 70.2238 84.8112 70.2238Z"
    fill="#FA9E9F" />
  <path
    d="M124.375 70.2238C127.314 70.2238 129.697 68.9862 129.697 67.4596C129.697 65.933 127.314 64.6954 124.375 64.6954C121.436 64.6954 119.053 65.933 119.053 67.4596C119.053 68.9862 121.436 70.2238 124.375 70.2238Z"
    fill="#FA9E9F" />
</svg>