<?xml version="1.0" standalone="no"?>
<!DOCTYPE svg PUBLIC "-//W3C//DTD SVG 20010904//EN"
 "http://www.w3.org/TR/2001/REC-SVG-20010904/DTD/svg10.dtd">
<svg version="1.0" xmlns="http://www.w3.org/2000/svg"
 width="700.000000pt" height="700.000000pt" viewBox="0 0 700.000000 700.000000"
 preserveAspectRatio="xMidYMid meet">
<metadata>
Created by potrace 1.14, written by Peter Selinger 2001-2017
</metadata>
<g transform="translate(0.000000,700.000000) scale(0.100000,-0.100000)"
fill="#000000" stroke="none">
<path d="M3995 6980 c-130 -33 -224 -76 -350 -162 -154 -106 -351 -307 -492
-503 -24 -33 -46 -64 -51 -70 -27 -35 -130 -199 -191 -305 -87 -152 -74 -126
-167 -309 -63 -125 -81 -152 -103 -158 -37 -9 -322 -9 -406 0 -136 15 -181 22
-283 43 -42 9 -88 18 -102 20 -14 3 -115 28 -225 56 -110 28 -220 52 -244 53
-113 7 -223 -96 -217 -201 5 -92 74 -133 336 -199 102 -25 201 -48 220 -51 19
-3 51 -9 70 -14 19 -5 55 -11 80 -14 25 -3 55 -8 67 -10 12 -3 53 -8 90 -11
37 -4 70 -9 73 -10 5 -3 153 -11 347 -19 35 -1 65 -5 68 -7 2 -3 -14 -54 -37
-114 -150 -407 -271 -815 -313 -1065 -3 -19 -12 -71 -20 -115 -29 -157 -39
-287 -38 -470 1 -196 22 -336 66 -454 98 -261 252 -380 491 -379 175 0 312 48
565 199 156 92 363 263 609 504 90 88 170 163 177 168 15 8 19 26 -70 -338
-61 -249 -73 -283 -107 -304 -13 -8 -117 -73 -233 -144 -280 -173 -751 -489
-785 -527 -3 -3 -36 -30 -74 -60 -38 -29 -87 -70 -110 -89 -53 -47 -293 -286
-330 -330 -70 -83 -159 -221 -210 -324 -97 -197 -126 -316 -127 -528 0 -167
15 -241 78 -366 77 -155 218 -270 398 -327 102 -32 275 -40 414 -20 247 37
484 164 676 365 213 223 363 473 528 885 89 221 121 316 212 629 38 132 141
513 150 555 2 8 13 56 25 105 12 50 23 95 24 100 5 27 31 49 151 125 551 350
933 650 1118 878 99 123 107 164 45 254 -45 65 -162 102 -223 71 -16 -9 -99
-85 -183 -169 -136 -137 -286 -272 -366 -329 -15 -11 -47 -34 -70 -52 -98 -73
-328 -223 -335 -218 -5 2 9 78 30 167 22 90 41 172 44 183 2 11 11 49 20 85 9
36 19 76 21 90 3 14 12 52 21 85 8 33 17 68 18 78 2 10 18 75 35 145 38 155
43 202 30 253 -45 166 -334 240 -486 124 -38 -29 -74 -82 -127 -185 -161 -315
-720 -929 -1061 -1165 -150 -104 -307 -157 -361 -121 -27 18 -59 73 -69 121
-3 17 -9 41 -12 55 -4 14 -7 104 -9 200 -2 158 1 212 20 360 6 49 30 188 46
260 5 25 11 54 13 65 10 54 62 246 102 380 74 245 251 726 277 752 7 6 77 30
157 53 342 97 636 228 894 397 206 135 401 340 486 511 70 143 95 328 63 467
-42 180 -218 342 -425 390 -104 24 -260 26 -343 5z m327 -427 c53 -48 66 -129
37 -233 -31 -108 -82 -191 -181 -290 -60 -61 -206 -176 -238 -188 -8 -3 -30
-16 -48 -29 -76 -51 -402 -198 -486 -219 l-28 -7 58 114 c98 194 230 406 343
554 69 90 244 261 293 286 94 48 204 54 250 12z m-583 -4345 c-6 -23 -12 -45
-15 -50 -3 -4 -7 -16 -9 -25 -27 -137 -160 -576 -229 -758 -114 -298 -277
-575 -418 -711 -124 -120 -214 -179 -338 -220 -162 -55 -305 9 -353 157 -16
52 -18 218 -3 279 3 14 9 38 11 54 18 96 115 286 208 406 119 153 389 397 632
571 104 75 433 294 490 327 31 18 34 15 24 -30z"/>
</g>
</svg>
