<?xml version="1.0" standalone="no"?>
<!DOCTYPE svg PUBLIC "-//W3C//DTD SVG 20010904//EN"
 "http://www.w3.org/TR/2001/REC-SVG-20010904/DTD/svg10.dtd">
<svg version="1.0" xmlns="http://www.w3.org/2000/svg"
 width="792.000000pt" height="792.000000pt" viewBox="0 0 792.000000 792.000000"
 preserveAspectRatio="xMidYMid meet">
<metadata>
Created by potrace 1.14, written by Peter Selinger 2001-2017
</metadata>
<g transform="translate(0.000000,792.000000) scale(0.100000,-0.100000)"
fill="#000000" stroke="none">
<path d="M4599 7916 c-2 -2 -22 -7 -43 -10 -21 -4 -51 -9 -65 -13 -45 -10
-206 -75 -209 -84 -2 -5 -12 -9 -23 -9 -10 0 -19 -4 -19 -10 0 -5 -5 -10 -10
-10 -16 0 -148 -91 -222 -152 -76 -63 -220 -207 -274 -274 -21 -27 -48 -59
-59 -71 -22 -25 -28 -32 -70 -88 -16 -22 -33 -41 -37 -43 -4 -2 -8 -8 -8 -12
0 -5 -21 -38 -47 -73 -27 -36 -66 -93 -88 -128 -22 -35 -59 -95 -82 -132 -24
-38 -43 -71 -43 -73 0 -2 -10 -21 -23 -42 -59 -93 -209 -382 -199 -382 4 0 2
-4 -4 -8 -5 -4 -20 -28 -32 -54 -12 -25 -25 -49 -29 -51 -25 -15 -303 -23
-413 -12 -95 9 -166 17 -185 21 -11 2 -38 6 -61 8 -22 3 -52 7 -65 10 -13 3
-35 8 -49 10 -151 27 -416 90 -595 142 -75 21 -124 20 -183 -6 -77 -35 -130
-94 -143 -164 -24 -122 49 -189 260 -242 9 -2 88 -22 176 -44 88 -22 174 -42
190 -45 17 -2 41 -7 55 -10 14 -3 41 -8 60 -11 19 -2 46 -7 60 -9 43 -9 83
-15 135 -20 28 -3 61 -7 75 -9 107 -14 287 -25 418 -26 65 -1 102 -5 102 -12
0 -6 -24 -74 -54 -152 -56 -145 -146 -402 -173 -491 -39 -132 -93 -324 -98
-350 -9 -40 -15 -65 -20 -82 -9 -34 -24 -98 -29 -123 -2 -14 -9 -45 -14 -70
-6 -25 -13 -61 -16 -80 -3 -19 -10 -58 -15 -87 -6 -29 -13 -74 -16 -100 -3
-26 -8 -64 -11 -83 -5 -35 -11 -88 -19 -170 -7 -67 -7 -286 0 -355 5 -53 13
-122 19 -165 19 -138 100 -338 172 -427 67 -82 102 -110 199 -156 185 -88 454
-56 715 86 121 65 165 91 168 99 2 4 10 8 18 8 8 0 14 5 14 10 0 6 4 10 10 10
8 0 80 48 130 87 114 89 224 177 239 191 10 9 58 53 107 97 48 44 155 147 236
229 118 120 146 144 142 122 -2 -15 -16 -73 -30 -129 -14 -56 -27 -109 -28
-117 -2 -8 -9 -33 -14 -55 -6 -22 -13 -51 -16 -65 -3 -14 -22 -94 -43 -179
-36 -149 -39 -154 -73 -176 -52 -34 -330 -204 -367 -226 -124 -71 -562 -364
-713 -477 -500 -374 -796 -706 -942 -1057 -26 -60 -56 -146 -64 -180 -35 -149
-37 -172 -38 -325 0 -143 3 -179 29 -275 18 -67 87 -210 119 -248 63 -72 85
-95 126 -129 81 -66 232 -136 335 -154 136 -24 311 -24 435 1 41 8 95 19 100
20 25 6 128 40 140 46 8 4 38 18 65 30 219 99 427 280 611 529 45 61 151 228
175 275 9 17 36 68 61 115 103 195 268 604 333 830 7 25 31 104 53 175 23 72
71 243 107 380 36 138 70 266 75 285 6 19 12 46 15 60 2 14 11 50 20 80 8 30
18 69 21 85 3 17 7 35 9 40 1 6 6 24 10 41 5 22 19 39 47 55 22 13 47 29 57
34 9 6 31 20 48 33 17 12 33 22 36 22 4 0 345 223 397 260 8 6 52 36 96 68 45
31 95 67 110 79 16 12 63 47 104 78 41 31 86 66 100 78 14 12 45 38 70 57 183
142 443 421 457 489 10 52 10 52 -4 96 -34 105 -159 177 -264 153 -28 -6 -73
-39 -112 -82 -73 -78 -194 -201 -258 -261 -58 -54 -89 -81 -203 -176 -93 -78
-433 -315 -513 -358 -20 -10 -23 -9 -23 6 0 10 5 35 11 57 6 21 12 46 14 55 4
19 32 137 80 337 19 78 37 153 39 165 3 13 5 24 6 24 1 0 3 9 5 20 2 11 18 79
35 150 18 72 34 138 36 148 10 41 13 54 24 97 18 67 20 131 5 173 -71 206
-421 272 -583 109 -21 -21 -63 -89 -96 -156 -33 -65 -65 -124 -70 -130 -6 -6
-35 -47 -65 -91 -30 -44 -58 -84 -63 -90 -4 -5 -22 -28 -38 -50 -33 -44 -79
-101 -95 -119 -5 -6 -26 -31 -46 -56 -152 -188 -406 -453 -569 -595 -30 -27
-57 -51 -60 -54 -17 -20 -181 -146 -211 -161 -13 -7 -26 -16 -29 -20 -12 -15
-150 -88 -205 -107 -128 -47 -183 -34 -224 50 -23 48 -26 59 -45 177 -16 106
-10 459 10 552 3 13 7 41 9 63 3 22 7 51 10 65 2 14 7 39 10 55 4 26 41 215
50 255 24 108 87 337 127 460 17 52 31 100 33 105 1 6 5 17 8 25 3 8 23 67 45
130 41 118 142 388 169 450 8 19 21 49 28 66 11 27 22 34 67 44 29 7 105 28
168 47 63 19 120 35 125 36 6 1 15 5 20 8 6 4 24 10 40 14 17 5 32 9 35 10 3
1 21 8 41 17 20 9 47 19 60 22 13 4 33 11 44 16 11 5 46 20 78 34 32 14 60 26
63 26 6 0 245 120 299 150 44 25 267 170 275 179 3 3 28 24 55 45 84 66 247
238 300 317 27 41 50 76 50 79 0 3 8 16 17 30 28 42 74 167 94 255 13 60 13
231 -1 283 -7 29 -12 52 -9 52 2 0 -14 35 -36 78 -112 221 -332 347 -621 358
-69 2 -127 2 -130 0z m264 -484 c88 -39 115 -178 61 -308 -8 -19 -12 -34 -10
-34 7 0 -53 -110 -79 -145 -120 -166 -303 -309 -570 -444 -107 -55 -318 -146
-360 -156 -5 -1 -23 -7 -39 -14 -16 -6 -33 -10 -37 -9 -10 4 77 175 185 364
61 107 201 316 273 407 72 92 228 247 289 290 91 62 211 83 287 49z m-629
-4909 c-3 -16 -26 -102 -51 -193 -24 -91 -45 -174 -47 -185 -2 -11 -4 -20 -5
-20 -2 0 -4 -7 -6 -15 -14 -68 -142 -461 -162 -500 -7 -14 -13 -30 -13 -37 0
-7 -7 -27 -15 -45 -8 -18 -28 -67 -46 -108 -87 -208 -220 -440 -326 -570 -55
-69 -179 -186 -245 -233 -123 -88 -280 -148 -368 -141 -152 11 -248 103 -275
261 -21 123 11 328 72 463 8 19 22 51 31 70 16 36 110 191 121 200 3 3 28 34
55 70 132 173 446 452 726 646 47 32 87 61 90 64 3 3 91 61 195 129 105 68
206 133 225 146 46 31 52 31 44 -2z"/>
</g>
</svg>
